<svg width="52" height="25" viewBox="0 0 52 25" xmlns="http://www.w3.org/2000/svg"><title>apple-paypal</title><path d="M50.32 6.703l-2.94 8.035c-.181.484-.354.974-.511 1.448-.075.24-.147.464-.22.678h-.053a41.734 41.734 0 0 0-.711-2.079l-3.142-8.082h-1.68l4.494 11.622c.119.28.138.407.138.46 0 .015-.008.11-.14.465a8.512 8.512 0 0 1-.953 1.782c-.36.492-.69.895-.986 1.188a5.299 5.299 0 0 1-1.05.84 9.97 9.97 0 0 1-.997.524l-.17.078.547 1.338.173-.066a10.8 10.8 0 0 0 .82-.375c.407-.204.863-.527 1.348-.96.413-.366.795-.8 1.133-1.287.333-.477.665-1.04.989-1.666a24.3 24.3 0 0 0 .96-2.11c.313-.779.654-1.652 1.001-2.59L52 6.703h-1.68zm-12.29 8.534c0 .169-.042.4-.119.679a3.387 3.387 0 0 1-1.108 1.58 3.249 3.249 0 0 1-.962.52c-.408.134-.836.2-1.265.193-.284 0-.563-.047-.83-.141a1.973 1.973 0 0 1-.696-.42 2.11 2.11 0 0 1-.492-.713c-.123-.287-.185-.645-.185-1.06 0-.677.181-1.23.537-1.632a3.523 3.523 0 0 1 1.404-.955 7.247 7.247 0 0 1 1.897-.437 17.706 17.706 0 0 1 1.82-.077v2.463h-.001zm1.6 2.469c-.017-.49-.026-.983-.026-1.473v-4.82c0-.573-.057-1.155-.17-1.736a4.402 4.402 0 0 0-.652-1.612 3.663 3.663 0 0 0-1.329-1.186c-.56-.302-1.289-.457-2.166-.457-.641 0-1.267.084-1.857.249-.622.18-1.21.46-1.739.833l-.127.088.53 1.25.194-.128c.42-.284.88-.504 1.365-.653a5.083 5.083 0 0 1 1.51-.234c.656 0 1.18.12 1.553.356.38.24.665.533.852.88.192.355.318.734.373 1.128.06.41.09.776.09 1.09v.14c-2.335-.011-4.16.38-5.37 1.165-1.272.822-1.917 1.996-1.917 3.48 0 .428.076.858.228 1.285.153.432.383.818.685 1.147.307.332.699.606 1.17.81.47.205 1.022.308 1.638.308.46.002.918-.06 1.36-.188a4.43 4.43 0 0 0 1.113-.493 4.86 4.86 0 0 0 .858-.676c.11-.112.207-.223.3-.335h.062l.145 1.41h1.517l-.04-.225a9.616 9.616 0 0 1-.15-1.403zM27.44 9.733c-.81.681-1.953 1.028-3.406 1.028-.398 0-.777-.02-1.122-.051a5.408 5.408 0 0 1-.793-.133V3.199c.209-.036.467-.072.77-.105a12.86 12.86 0 0 1 1.373-.064c.656 0 1.26.08 1.8.236.5.138.97.368 1.384.68.377.294.676.68.882 1.14.207.467.311 1.024.311 1.655 0 1.313-.405 2.318-1.199 2.992zm1.446-6.624c-.492-.48-1.124-.85-1.885-1.105-.752-.25-1.657-.379-2.688-.379-.71 0-1.376.035-1.974.105-.593.067-1.142.144-1.636.23l-.158.027v17.347h1.574v-7.307c.53.092 1.138.137 1.809.137.89 0 1.725-.114 2.481-.339a5.495 5.495 0 0 0 1.99-1.045 4.994 4.994 0 0 0 1.329-1.736c.323-.686.487-1.495.487-2.403 0-.752-.119-1.429-.349-2.011a4.568 4.568 0 0 0-.98-1.52v-.001zM13.17 10.348c-.021-2.465 2.002-3.654 2.096-3.711-1.142-1.67-2.912-1.902-3.542-1.928-1.508-.152-2.946.893-3.71.893-.766 0-1.943-.87-3.198-.844C3.172 4.782 1.657 5.72.807 7.2c-1.704 2.987-.43 7.399 1.234 9.816.813 1.18 1.782 2.51 3.058 2.463 1.23-.05 1.69-.799 3.174-.799 1.48-.002 1.9.797 3.193.773 1.32-.03 2.16-1.207 2.97-2.396.93-1.368 1.313-2.7 1.335-2.767-.026-.017-2.571-.991-2.601-3.942zm-2.805-7.239c.675-.824 1.13-1.968 1.007-3.109-.975.04-2.158.655-2.852 1.476-.628.728-1.174 1.895-1.024 3.015 1.086.083 2.193-.557 2.869-1.382z" fill-rule="nonzero" fill="#000"/></svg>