<svg width="139" height="95" viewBox="0 0 101 69" xmlns="http://www.w3.org/2000/svg" fill-rule="evenodd" clip-rule="evenodd" stroke-linejoin="round" stroke-miterlimit="10"><clipPath id="a"><path d="M8.243 5.997a2.246 2.246 0 0 1 2.25-2.247h35.25a2.249 2.249 0 0 1 2.25 2.247V27.59c0 1.24-1 2.247-2.25 2.247h-35.25a2.249 2.249 0 0 1-2.25-2.247V5.997z"/></clipPath><g clip-path="url(#a)"><path fill="#f7f8f9" fill-rule="nonzero" d="M4.493 0h47.252v33.587H4.493z"/></g><clipPath id="b"><path d="M8.243 6a2.247 2.247 0 0 1 2.25-2.25h35.25A2.253 2.253 0 0 1 47.993 6v3.96H8.244V6z"/></clipPath><g clip-path="url(#b)"><path fill="#4ea7e2" fill-rule="nonzero" d="M4.493 0h47.252v13.71H4.493z"/></g><clipPath id="c"><path d="M8.243 23.626h39.75v3.96c0 1.243-1 2.25-2.25 2.25h-35.25a2.251 2.251 0 0 1-2.25-2.25v-3.96z"/></clipPath><g clip-path="url(#c)"><path fill="#f8c274" fill-rule="nonzero" d="M4.493 19.876h47.252v13.71H4.493z"/></g><clipPath id="d"><path d="M24.287 20.413l1.125-7.22h1.798l-1.125 7.22h-1.798zm8.322-7.043a4.328 4.328 0 0 0-1.613-.303c-1.778 0-3.03.98-3.04 2.383-.01 1.038.893 1.617 1.575 1.96.7.355.936.58.933.898-.004.483-.56.705-1.076.705-.72 0-1.103-.11-1.695-.38l-.23-.114-.253 1.615c.42.2 1.197.376 2.004.385 1.89 0 3.117-.968 3.132-2.466.006-.823-.473-1.447-1.51-1.962-.63-.335-1.015-.557-1.01-.896 0-.3.325-.62 1.03-.62.588-.01 1.014.13 1.345.276l.162.083.244-1.565zm2.393 4.483c.15-.415.717-2.018.717-2.018-.01.02.148-.418.24-.69l.12.624s.345 1.722.416 2.083h-1.493zM20.83 17.12l.188 1 1.76-4.92h1.906l-2.832 7.206h-1.904l-1.6-6.27a7.14 7.14 0 0 0-1.888-.793l.024-.15h2.9c.39.017.706.152.815.61l.63 3.318zm16.39-3.92h-1.39c-.43 0-.754.128-.943.598l-2.67 6.618h1.888s.308-.89.378-1.086l2.303.004c.053.252.218 1.082.218 1.082h1.67L37.22 13.2z"/></clipPath><g clip-path="url(#d)"><path fill="#0087d7" fill-rule="nonzero" d="M12.71 9.317h29.718V24.27H12.71z"/></g><clipPath id="e"><path d="M8.243 5.997a2.246 2.246 0 0 1 2.25-2.247h35.25a2.249 2.249 0 0 1 2.25 2.247V27.59c0 1.24-1 2.247-2.25 2.247h-35.25a2.249 2.249 0 0 1-2.25-2.247V5.997z"/></clipPath><g clip-path="url(#e)"><path fill="none" d="M4.493 0h47.252v33.587H4.493z"/></g><clipPath id="f"><path d="M56.503 5.997a2.246 2.246 0 0 1 2.25-2.247h35.25a2.25 2.25 0 0 1 2.252 2.247V27.59a2.246 2.246 0 0 1-2.25 2.247h-35.25a2.25 2.25 0 0 1-2.252-2.247V5.997z"/></clipPath><g clip-path="url(#f)"><path fill="#f7f8f9" fill-rule="nonzero" d="M52.753 0h47.252v33.587H52.753z"/></g><clipPath id="g"><path d="M72.03 23.626a6.834 6.834 0 1 0 0-13.666 6.832 6.832 0 0 0-6.83 6.833 6.831 6.831 0 0 0 6.83 6.833z"/></clipPath><g clip-path="url(#g)"><path fill="#e23a37" fill-rule="nonzero" d="M61.45 6.21h21.164v21.166H61.45z"/></g><clipPath id="h"><path d="M76.38 11.523a6.833 6.833 0 1 1-.002 10.542 6.82 6.82 0 0 0 2.484-5.27 6.813 6.813 0 0 0-2.485-5.27z"/></clipPath><g clip-path="url(#h)"><path fill="#f2ae3a" fill-rule="nonzero" d="M72.63 6.21h18.68v21.166H72.63z"/></g><clipPath id="i"><path d="M76.38 22.064a6.82 6.82 0 0 0 2.484-5.27 6.813 6.813 0 0 0-2.485-5.27 6.813 6.813 0 0 0-2.485 5.27 6.82 6.82 0 0 0 2.484 5.27z"/></clipPath><g clip-path="url(#i)"><path fill="#e23a37" fill-rule="nonzero" d="M73.493 11.25h6V22.5h-6z"/><clipPath id="j"><path d="M73.274 11.825h6.21v.62h-6.21v-.62zm0 1.242h6.21v.62h-6.21v-.62zm0 1.242h6.21v.62h-6.21v-.62zm0 1.24h6.21v.622h-6.21v-.62zm0 1.243h6.21v.622h-6.21v-.622zm0 1.243h6.21v.62h-6.21v-.62zm0 1.242h6.21v.62h-6.21v-.62zm0 1.242h6.21v.62h-6.21v-.62zm0 1.242h6.21v.622h-6.21v-.622z"/></clipPath><g clip-path="url(#j)"><path fill="#f2ae3a" fill-rule="nonzero" d="M73.493 11.25h6V22.5h-6z"/></g></g><clipPath id="k"><path d="M56.503 5.997a2.246 2.246 0 0 1 2.25-2.247h35.25a2.25 2.25 0 0 1 2.252 2.247V27.59a2.246 2.246 0 0 1-2.25 2.247h-35.25a2.25 2.25 0 0 1-2.252-2.247V5.997z"/></clipPath><g clip-path="url(#k)"><path fill="none" d="M52.753 0h47.252v33.587H52.753z"/></g><clipPath id="l"><path d="M56.503 39.91a2.246 2.246 0 0 1 2.25-2.247h35.25a2.25 2.25 0 0 1 2.252 2.247v21.593a2.246 2.246 0 0 1-2.25 2.247h-35.25a2.25 2.25 0 0 1-2.252-2.247V39.91z"/></clipPath><g clip-path="url(#l)"><path fill="#0087d7" fill-rule="nonzero" d="M52.753 33.913h47.252V67.5H52.753z"/></g><clipPath id="m"><path d="M56.503 39.91a2.246 2.246 0 0 1 2.25-2.247h35.25a2.25 2.25 0 0 1 2.252 2.247v21.593a2.246 2.246 0 0 1-2.25 2.247h-35.25a2.25 2.25 0 0 1-2.252-2.247V39.91z"/></clipPath><g clip-path="url(#m)"><path fill="none" d="M52.753 33.913h47.252V67.5H52.753z"/></g><clipPath id="n"><path d="M69.066 52.35c3.517-1.508 8.454-2.875 14.99-1.507l.07-1.658c-6.898-.752-11.847 1.444-15.06 3v.164z"/></clipPath><g clip-path="url(#n)"><path fill="#fcb735" fill-rule="nonzero" d="M65.316 45.283h22.56V56.1h-22.56z"/></g><clipPath id="o"><path d="M62.715 53.568h3.315v1h-2.06l-.014.92h2.053v.958h-2.06l.007.923h2.03v.998h-3.27l-.002-4.8z"/></clipPath><g clip-path="url(#o)"><path fill="#fff" fill-rule="nonzero" d="M58.965 49.818H69.78v12.3H58.966z"/></g><clipPath id="p"><path d="M66.863 53.166h1.207l.004 5.202h-1.207l-.004-5.202z"/></clipPath><g clip-path="url(#p)"><path fill="#fff" fill-rule="nonzero" d="M63.113 49.416h8.71v12.702h-8.71z"/></g><clipPath id="q"><path d="M71.333 56.183c0-.36-.174-.686-.576-.686-.38 0-.672.34-.75.686h1.326zm.887 1.79c-.408.346-1.033.52-1.588.52-1.27 0-1.845-.902-1.845-1.797 0-1.054.79-1.95 1.88-1.95 1.332 0 1.748.944 1.748 2.144h-2.42c0 .27.172.73.84.73.422 0 .657-.126.983-.348l.402.7z"/></clipPath><g clip-path="url(#q)"><path fill="#fff" fill-rule="nonzero" d="M65.037 50.997h11.128v11.245H65.037z"/></g><clipPath id="r"><path d="M72.886 54.747h3.19v3.745h-3.19z"/></clipPath><g clip-path="url(#r)"><clipPath id="s"><path d="M72.743 54.75h3.75v3.75h-3.75z"/></clipPath><g clip-path="url(#s)"><clipPath id="t"><path d="M76.076 58.132c-.332.208-.88.36-1.282.36-1.11 0-1.908-.637-1.908-1.79 0-1.178.79-1.955 1.984-1.955.416 0 .915.132 1.186.305l-.39.79a1.509 1.509 0 0 0-.567-.138c-.605 0-1.007.36-1.007.937 0 .5.388.895.902.895.228 0 .457-.103.652-.2l.43.797z"/></clipPath><g clip-path="url(#t)"><path fill="#fff" fill-rule="nonzero" d="M72.743 54h3.75v4.5h-3.75z"/></g></g></g><clipPath id="u"><path d="M76.495 53.686H79.2v4.806h-2.705z"/></clipPath><g clip-path="url(#u)"><clipPath id="v"><path d="M76.523 54.873h.545l-.004-1.187h1.165l-.03 1.187h.992l-.02.873h-.992c0 .486-.035.998-.035 1.296 0 .306.077.452.347.452.167 0 .306-.083.444-.167l.264.82a2.38 2.38 0 0 1-1.193.345c-.978 0-1.027-.617-1.027-1.42 0-.43.035-.86.035-1.326h-.52l.028-.873z"/></clipPath><g clip-path="url(#v)"><path fill="#fff" fill-rule="nonzero" d="M76.493 53.25h3v5.25h-3z"/></g></g><clipPath id="w"><path d="M79.81 54.873h1.207v.49h.014c.18-.296.417-.588.89-.588.13 0 .27.014.394.042l-.16 1.192a1.381 1.381 0 0 0-.43-.07c-.402 0-.714.34-.714.41l-.02 2.018H79.78l.028-3.495z"/></clipPath><g clip-path="url(#w)"><path fill="#fff" fill-rule="nonzero" d="M76.032 51.025h10.032v11.092H76.032z"/></g><clipPath id="x"><path d="M84.5 57.577c.575 0 .75-.5.75-.957 0-.458-.175-.958-.75-.958-.576 0-.75.5-.75.958 0 .458.174.957.75.957zm0-2.83c1.29 0 1.956.82 1.956 1.873s-.666 1.872-1.956 1.872-1.956-.82-1.956-1.872c0-1.054.666-1.873 1.956-1.873z"/></clipPath><g clip-path="url(#x)"><path fill="#fff" fill-rule="nonzero" d="M78.794 50.997h11.412v11.245H78.794z"/></g><clipPath id="y"><path d="M87.083 54.747h3.51v3.62h-3.51z"/></clipPath><g clip-path="url(#y)"><clipPath id="z"><path d="M86.993 54.75h3.75v3.75h-3.75z"/></clipPath><g clip-path="url(#z)"><clipPath id="A"><path d="M87.112 54.873h1.206v.38c.278-.27.7-.506 1.13-.506.743 0 1.145.41 1.145 1.367 0 .714-.007 1.483-.014 2.254H89.37c.007-.673.015-1.353.015-2.074 0-.285-.077-.507-.438-.507-.195 0-.472.167-.632.32l-.006 2.26h-1.23l.03-3.494z"/></clipPath><g clip-path="url(#A)"><path fill="#fff" fill-rule="nonzero" d="M86.993 54h3.75v4.5h-3.75z"/></g></g></g><clipPath id="B"><path d="M72.64 47.672l1.526-5.026h1.36l-1.524 5.026h-1.36z"/></clipPath><g clip-path="url(#B)"><path fill="#fff" fill-rule="nonzero" d="M68.89 38.896h10.386v12.526H68.89z"/></g><clipPath id="C"><path d="M72.033 42.646l-1.223 2.13c-.312.56-.494.842-.58 1.195h-.02c.02-.447-.04-.996-.046-1.305l-.136-2.02h-2.29l-.023.137c.588 0 .937.295 1.032.9l.447 3.99h1.41l2.85-5.026h-1.42z"/></clipPath><g clip-path="url(#C)"><path fill="#fff" fill-rule="nonzero" d="M63.965 38.896h13.24v12.526h-13.24z"/></g><clipPath id="D"><path d="M82.456 44.707c-.015-.372-.028-.875-.002-1.18h-.02c-.083.25-.44 1-.595 1.366l-.507 1.103h1.193l-.07-1.29zm.156 2.965l-.038-.747h-1.698l-.348.747h-1.476l2.677-5.017h1.812l.454 5.017h-1.384z"/></clipPath><g clip-path="url(#D)"><path fill="#fff" fill-rule="nonzero" d="M75.302 38.905h12.444v12.517H75.302z"/></g><clipPath id="E"><path d="M76.954 47.815c-.96 0-1.598-.304-2.052-.576l.648-.99c.408.228.73.49 1.467.49.238 0 .465-.06.595-.285.19-.327-.043-.503-.574-.804l-.262-.17c-.788-.538-1.13-1.05-.76-1.94.24-.572.864-1.005 1.897-1.005.712 0 1.38.308 1.768.61l-.743.873c-.38-.308-.695-.463-1.055-.463-.286 0-.505.11-.58.26-.142.28.046.472.46.73l.312.198c.956.603 1.185 1.235.945 1.827-.413 1.018-1.22 1.245-2.066 1.245z"/></clipPath><g clip-path="url(#E)"><path fill="#fff" fill-rule="nonzero" d="M71.152 38.785h12.28v12.78h-12.28z"/></g><clipPath id="F"><path d="M8.243 39.91a2.246 2.246 0 0 1 2.25-2.247h35.25a2.249 2.249 0 0 1 2.25 2.247v21.593c0 1.24-1 2.247-2.25 2.247h-35.25a2.249 2.249 0 0 1-2.25-2.247V39.91z"/></clipPath><g clip-path="url(#F)"><path fill="url(#G)" fill-rule="nonzero" d="M8.243 37.663h39.752V63.75H8.243z"/></g><clipPath id="H"><path d="M8.243 39.91a2.246 2.246 0 0 1 2.25-2.247h35.25a2.249 2.249 0 0 1 2.25 2.247v21.593c0 1.24-1 2.247-2.25 2.247h-35.25a2.249 2.249 0 0 1-2.25-2.247V39.91z"/></clipPath><g clip-path="url(#H)"><path fill="url(#I)" fill-rule="nonzero" d="M8.243 3.75h88.5v60h-88.5z"/></g><clipPath id="J"><path d="M8.243 39.91a2.246 2.246 0 0 1 2.25-2.247h35.25a2.249 2.249 0 0 1 2.25 2.247v21.593c0 1.24-1 2.247-2.25 2.247h-35.25a2.249 2.249 0 0 1-2.25-2.247V39.91z"/></clipPath><g clip-path="url(#J)"><path fill="none" d="M4.493 33.913h47.252V67.5H4.493z"/></g><clipPath id="K"><path d="M17.446 51.05l.07-.155h1.313l.065.15-.146.225h-.166l-.61-1.385.196-.428.022-.01v.375h-.017v-.375l.022.01.19.43-.63 1.383h-.17l-.14-.22zm-2.19 1.766l-.08.163-.1-.164h.18zm.054.375h.18l-.078.164-.102-.163zm5.566 0h.18l-.102.163-.078-.162zm.314-.212l-.077-.162h.18l-.103.162zm1.964-2.395v-.88h.017l.36.8v2.688c0 .208-.17.376-.376.376h-1.31a.375.375 0 0 1-.375-.375v-4.968c0-.207.167-.375.374-.375h1.97c.148 0 .283.09.343.225l1.35 3.105-.185.453-.022.01v-.376h.018v.375l-.022-.01-.195-.45 1.28-3.1a.374.374 0 0 1 .345-.233h1.97c.206 0 .374.168.374.375v4.97c0 .206-.17.374-.376.374h-1.31a.375.375 0 0 1-.374-.375v-2.714l.357-.806h.018v.886l-1.234 2.787a.375.375 0 0 1-.342.223H24.73a.374.374 0 0 1-.342-.222l-1.234-2.76zM34.66 53.19h.09v-.243l2.218-2.602.002.49-2.048-2.367a.375.375 0 0 1 .283-.62h1.62c.116 0 .225.052.296.142l1.196 1.52-.053.066-.375-.003-.052-.066 1.238-1.522a.374.374 0 0 1 .29-.138h1.533c.32 0 .493.376.284.62l-2.038 2.373v-.488l2.218 2.595a.376.376 0 0 1-.285.62H39.41a.377.377 0 0 1-.292-.14l-1.342-1.66.05-.06.386.003.05.06-1.37 1.66a.371.371 0 0 1-.288.136h-1.568a.375.375 0 0 1-.376-.375zm.696-.374l-.208.243-.112-.244h.32zm-.23.27l-.09.105h.09a.375.375 0 0 1-.375.376h-4.827a.375.375 0 0 1-.375-.375v-4.968c0-.207.168-.375.375-.375h4.757c.207 0 .375.168.375.375v.92a.375.375 0 0 1-.375.374h-3.358l.375-.375v1.065l-.375-.375h3.082c.207 0 .375.168.375.375v.85c0 .207-.17.374-.376.374h-3.082l.375-.376v1.218l-.375-.375h3.43c.206 0 .374.168.374.375v.813zm.083.105h.32l-.21.244-.11-.243zm5.372 0h.32l-.112.245-.208-.244zm.38-.13l-.207-.244h.32l-.112.244zm-.387-4.463l.21-.244.112.244h-.322zm.15-.375h-.323l.21-.244.113.244zm-5.024 0h-.323l.112-.245.21.245zm-.383.13l.213.245h-.325l.112-.245zm-18.175-.293l-2.405 4.968c-.12.25.06.538.338.538h1.407c.148 0 .28-.086.342-.22l.5-1.107-.343.22h2.38l-.345-.226.48 1.106c.06.137.196.226.345.226h1.452a.375.375 0 0 0 .338-.537l-2.378-4.97a.375.375 0 0 0-.338-.213H17.48a.375.375 0 0 0-.338.212z"/></clipPath><g clip-path="url(#K)"><path fill="none" d="M11.325 44.472h33.5v12.47h-33.5z"/></g><clipPath id="L"><path d="M6.075 39.222h44v22.97h-44V39.22zm11.27 12.048l.83-1.823h.017l.802 1.823h-1.648zm.135-3.048l-2.405 4.97h1.407l.5-1.108h2.377l.48 1.107h1.452l-2.378-4.968H17.48zm4.364 0v4.97h1.31v-3.488h.017l1.56 3.487h1.078l1.56-3.52h.017v3.52h1.31v-4.968h-1.97l-1.407 3.417H25.3l-1.487-3.418h-1.97zm8.08 0v4.97h4.827v-.92h-3.428v-1.218h3.082v-.85h-3.082v-1.063h3.358v-.918h-4.757zm7.33 2.366l-2.218 2.603h1.568l1.416-1.718 1.39 1.72h1.665l-2.218-2.597 2.04-2.373h-1.532l-1.292 1.587-1.247-1.588h-1.62l2.048 2.366z"/></clipPath><g clip-path="url(#L)"><path d="M17.346 51.27l.83-1.823h.016l.802 1.823h-1.648zm.134-3.048l-2.405 4.97h1.407l.5-1.108h2.377l.48 1.107h1.452l-2.378-4.968H17.48zm4.364 0v4.97h1.31v-3.488h.017l1.56 3.487h1.078l1.56-3.52h.017v3.52h1.31v-4.968h-1.97l-1.407 3.417H25.3l-1.487-3.418h-1.97zm8.08 0v4.97h4.827v-.92h-3.428v-1.218h3.082v-.85h-3.082v-1.063h3.358v-.918h-4.757zm7.33 2.366l-2.218 2.603h1.568l1.416-1.718 1.39 1.72h1.665l-2.218-2.597 2.04-2.373h-1.532l-1.292 1.587-1.247-1.588h-1.62l2.048 2.366z" fill="none" stroke-width="3" stroke="#fff"/></g><defs><radialGradient id="G" cx="0" cy="0" r="1" gradientUnits="userSpaceOnUse" gradientTransform="matrix(0 768 -768 0 266.15 183.234)"><stop offset="0%" stop-color="#81d2f5" stop-opacity="0"/><stop offset="100%" stop-color="#0086c9" stop-opacity="0"/></radialGradient><radialGradient id="I" cx="0" cy="0" r="1" gradientUnits="userSpaceOnUse" gradientTransform="rotate(90 -10.508 32.1) scale(26.087)"><stop offset="0%" stop-color="#81d2f5"/><stop offset="100%" stop-color="#0086c9"/></radialGradient></defs></svg>