<svg width="68" height="18" viewBox="0 0 68 18" xmlns="http://www.w3.org/2000/svg"><title>carriers/color/web/db</title><path d="M42.19 2.106H25.238c-1.167 0-2.132.92-2.132 2.106v10.555a2.13 2.13 0 0 0 2.132 2.127H42.19a2.13 2.13 0 0 0 2.132-2.127V4.212c0-1.187-.965-2.106-2.132-2.106zm.584 12.66c0 .337-.25.607-.584.607H25.238c-.335 0-.583-.268-.583-.606V4.212c0-.336.246-.604.583-.604H42.19c.335 0 .584.268.584.604v10.555zm-13.18-.426h-3.57V4.66h3.57c2.514 0 3.904 1.567 3.904 4.796 0 2.8-.94 4.86-3.904 4.884zm10.07-5.064c.69-.182 1.7-.963 1.7-2.254 0-.203-.044-2.36-2.776-2.36h-4.07v9.676h3.437c.91 0 3.747 0 3.747-2.72.002-.68-.276-1.96-2.04-2.342zm-8.52.38c0-1.95-.203-3.473-2.312-3.473h-.47v6.587h.83c1.234 0 1.953-.986 1.953-3.114zm5.69-3.5h.735c1.045 0 1.46.363 1.46 1.164 0 .636-.46 1.17-1.27 1.17h-.927V6.156zm.956 6.614h-.957v-2.486h1.02c1.214 0 1.51.703 1.51 1.244 0 1.242-1.204 1.242-1.573 1.242z" fill="#F01414" fill-rule="evenodd"/></svg>