<svg width="24" height="18" viewBox="0 0 24 18" xmlns="http://www.w3.org/2000/svg" xmlns:xlink="http://www.w3.org/1999/xlink"><title>UK</title><defs><rect id="a" width="24" height="18" rx="2"/></defs><g fill="none" fill-rule="evenodd"><mask id="b" fill="#fff"><use xlink:href="#a"/></mask><g mask="url(#b)"><g transform="translate(-3 -2)"><rect fill="#015FBC" x="1.587" y="1" width="26.413" height="20" rx="4"/><path d="M13.263 10.85L2.306 18.81l1.176 1.619 11.482-8.343 12.034 8.743 1.175-1.618-11.507-8.36 12.313-8.947L27.804.286l-12.84 9.328L2.095.264.92 1.882l12.343 8.968z" fill="#FFF"/><path d="M13.385 10.446L2.867 2.805l.294-.405 10.518 7.641-.294.405zm3.182-1.405L27.085 1.4l.294.405-10.518 7.64-.294-.404zm-3.188 3.573L2.86 20.254l-.294-.404 8.659-6.29 1.859-1.351.294.405zm3.727-.914l10.517 7.641-.294.405-10.517-7.641.294-.405z" fill="#E32D2D"/><path d="M17 9V2h-4v7H2v4h11v7h4v-7h11V9H17z" fill="#FFF"/><path d="M16 10V2h-2v8H2.5v2H14v8h2v-8h11.5v-2H16z" fill="#E32D2D"/></g></g></g></svg>