<svg id="artwork" xmlns="http://www.w3.org/2000/svg" viewBox="0 0 135 40"><defs><style>.cls-1{fill:#a6a6a6}.cls-10,.cls-2,.cls-9{fill:#fff}.cls-3{fill:url(#linear-gradient)}.cls-4{fill:url(#linear-gradient-2)}.cls-5{fill:url(#linear-gradient-3)}.cls-6{fill:url(#linear-gradient-4)}.cls-7{opacity:.2}.cls-7,.cls-8,.cls-9{isolation:isolate}.cls-8{opacity:.12}.cls-9{opacity:.25}.cls-10{stroke:#fff;stroke-miterlimit:10;stroke-width:.2px}</style><linearGradient id="linear-gradient" x1="21.8" y1="173.29" x2="5.02" y2="156.51" gradientTransform="matrix(1 0 0 -1 0 182)" gradientUnits="userSpaceOnUse"><stop offset="0" stop-color="#00a0ff"/><stop offset=".01" stop-color="#00a1ff"/><stop offset=".26" stop-color="#00beff"/><stop offset=".51" stop-color="#00d2ff"/><stop offset=".76" stop-color="#00dfff"/><stop offset="1" stop-color="#00e3ff"/></linearGradient><linearGradient id="linear-gradient-2" x1="33.83" y1="162" x2="9.64" y2="162" gradientTransform="matrix(1 0 0 -1 0 182)" gradientUnits="userSpaceOnUse"><stop offset="0" stop-color="#ffe000"/><stop offset=".41" stop-color="#ffbd00"/><stop offset=".78" stop-color="orange"/><stop offset="1" stop-color="#ff9c00"/></linearGradient><linearGradient id="linear-gradient-3" x1="24.83" y1="159.7" x2="2.07" y2="136.95" gradientTransform="matrix(1 0 0 -1 0 182)" gradientUnits="userSpaceOnUse"><stop offset="0" stop-color="#ff3a44"/><stop offset="1" stop-color="#c31162"/></linearGradient><linearGradient id="linear-gradient-4" x1="7.3" y1="181.82" x2="17.46" y2="171.66" gradientTransform="matrix(1 0 0 -1 0 182)" gradientUnits="userSpaceOnUse"><stop offset="0" stop-color="#32a071"/><stop offset=".07" stop-color="#2da771"/><stop offset=".48" stop-color="#15cf74"/><stop offset=".8" stop-color="#06e775"/><stop offset="1" stop-color="#00f076"/></linearGradient></defs><title>google-play-badge_FR</title><rect width="135" height="40" rx="5" ry="5"/><path class="cls-1" d="M130 .8a4.2 4.2 0 0 1 4.2 4.2v30a4.2 4.2 0 0 1-4.2 4.2H5A4.2 4.2 0 0 1 .8 35V5A4.2 4.2 0 0 1 5 .8h125m0-.8H5a5 5 0 0 0-5 5v30a5 5 0 0 0 5 5h125a5 5 0 0 0 5-5V5a5 5 0 0 0-5-5z"/><path class="cls-2" d="M68.14 21.75A4.25 4.25 0 1 0 72.41 26a4.19 4.19 0 0 0-4.27-4.25zm0 6.83a2.58 2.58 0 1 1 2.4-2.58 2.46 2.46 0 0 1-2.4 2.58zm-9.31-6.83A4.25 4.25 0 1 0 63.09 26a4.19 4.19 0 0 0-4.27-4.25zm0 6.83A2.58 2.58 0 1 1 61.22 26a2.46 2.46 0 0 1-2.4 2.58zm-11.09-5.52v1.8h4.32a3.77 3.77 0 0 1-1 2.27 4.42 4.42 0 0 1-3.33 1.32 4.8 4.8 0 0 1 0-9.6A4.6 4.6 0 0 1 51 20.14l1.27-1.27A6.29 6.29 0 0 0 47.74 17a6.61 6.61 0 1 0 0 13.21 6 6 0 0 0 4.61-1.85 6 6 0 0 0 1.56-4.22 5.87 5.87 0 0 0-.1-1.13zm45.31 1.4a4 4 0 0 0-3.64-2.71 4 4 0 0 0-4 4.25 4.16 4.16 0 0 0 4.22 4.25 4.23 4.23 0 0 0 3.54-1.88l-1.45-1a2.43 2.43 0 0 1-2.09 1.18 2.16 2.16 0 0 1-2.06-1.29l5.69-2.35zm-5.8 1.42a2.33 2.33 0 0 1 2.22-2.48 1.65 1.65 0 0 1 1.58.9zM82.63 30h1.87V17.5h-1.87zm-3.06-7.3h-.07a3 3 0 0 0-2.24-1 4.26 4.26 0 0 0 0 8.51 2.9 2.9 0 0 0 2.24-1h.06v.61c0 1.63-.87 2.5-2.27 2.5a2.35 2.35 0 0 1-2.14-1.51l-1.63.68A4.05 4.05 0 0 0 77.29 34c2.19 0 4-1.29 4-4.43V22h-1.72zm-2.14 5.88a2.59 2.59 0 0 1 0-5.16A2.4 2.4 0 0 1 79.7 26a2.38 2.38 0 0 1-2.28 2.58zm24.38-11.08h-4.48V30h1.87v-4.74h2.61a3.89 3.89 0 1 0 0-7.76zm0 6H99.2v-4.26h2.65a2.14 2.14 0 1 1 0 4.29zm11.53-1.8a3.5 3.5 0 0 0-3.33 1.91l1.66.69a1.77 1.77 0 0 1 1.7-.92 1.8 1.8 0 0 1 2 1.61v.13a4.13 4.13 0 0 0-1.95-.48c-1.79 0-3.6 1-3.6 2.81a2.89 2.89 0 0 0 3.1 2.75 2.63 2.63 0 0 0 2.4-1.2h.06v1h1.8v-4.81c0-2.19-1.66-3.46-3.79-3.46zm-.23 6.85c-.61 0-1.46-.31-1.46-1.06 0-1 1.06-1.33 2-1.33a3.32 3.32 0 0 1 1.7.42 2.26 2.26 0 0 1-2.19 2zM123.74 22l-2.14 5.42h-.06L119.32 22h-2l3.33 7.58-1.9 4.21h1.95L125.82 22zm-16.81 8h1.87V17.5h-1.87z"/><path class="cls-3" d="M10.44 7.54a2 2 0 0 0-.44 1.4v22.12a2 2 0 0 0 .46 1.4l.07.07L22.9 20.15v-.29L10.51 7.47z"/><path class="cls-4" d="M27 24.28l-4.1-4.13v-.29l4.1-4.14.09.05L32 18.56c1.4.79 1.4 2.09 0 2.89l-4.89 2.78z"/><path class="cls-5" d="M27.12 24.22L22.9 20 10.44 32.46a1.63 1.63 0 0 0 2.08.06l14.61-8.3"/><path class="cls-6" d="M27.12 15.78l-14.61-8.3a1.63 1.63 0 0 0-2.08.06L22.9 20z"/><path class="cls-7" d="M27 24.13l-14.49 8.25a1.67 1.67 0 0 1-2 0l-.07.07.07.07a1.66 1.66 0 0 0 2 0l14.61-8.3z"/><path class="cls-8" d="M10.44 32.32a2 2 0 0 1-.46-1.4v.15a2 2 0 0 0 .46 1.4l.07-.07zM32 21.3l-5 2.83.09.09L32 21.44A1.75 1.75 0 0 0 33 20a1.86 1.86 0 0 1-1 1.3z"/><path class="cls-9" d="M12.51 7.62L32 18.7a1.86 1.86 0 0 1 1 1.3 1.75 1.75 0 0 0-1-1.44L12.51 7.48C11.12 6.68 10 7.34 10 8.94v.15c0-1.6 1.12-2.26 2.51-1.47z"/><path class="cls-10" d="M41.28 13V7h1.84a3 3 0 0 1 2.21.83 2.94 2.94 0 0 1 .83 2.17 2.94 2.94 0 0 1-.83 2.17 3 3 0 0 1-2.21.83zm.77-.74h1.06a2.25 2.25 0 0 0 1.65-.6 2.23 2.23 0 0 0 .61-1.66 2.23 2.23 0 0 0-.61-1.66 2.25 2.25 0 0 0-1.65-.6H42zM47.24 13V7H48v6zM51.07 13.13a2.24 2.24 0 0 1-1.28-.43 2 2 0 0 1-.82-1.2l.7-.28a1.61 1.61 0 0 0 .51.83 1.3 1.3 0 0 0 .88.34 1.4 1.4 0 0 0 .86-.26.84.84 0 0 0 .36-.72.92.92 0 0 0-.36-.77 3.69 3.69 0 0 0-1.13-.51 3 3 0 0 1-1.21-.65 1.36 1.36 0 0 1-.41-1 1.49 1.49 0 0 1 .51-1.12A1.87 1.87 0 0 1 51 6.87a1.93 1.93 0 0 1 1.24.38 1.76 1.76 0 0 1 .62.83l-.7.29a1 1 0 0 0-.37-.53 1.31 1.31 0 0 0-1.53 0 .75.75 0 0 0-.31.62.7.7 0 0 0 .29.57 2.78 2.78 0 0 0 .85.41 7.23 7.23 0 0 1 .74.28 3.38 3.38 0 0 1 .6.36 1.42 1.42 0 0 1 .46.55 1.79 1.79 0 0 1 .16.77 1.65 1.65 0 0 1-.18.78 1.46 1.46 0 0 1-.48.54 2.37 2.37 0 0 1-.64.31 2.4 2.4 0 0 1-.68.1zM55 13h-.77V7h2a1.9 1.9 0 0 1 1.32.51 1.74 1.74 0 0 1 0 2.56 1.89 1.89 0 0 1-1.32.51H55zm0-3.17h1.29a1 1 0 0 0 .71-.32 1 1 0 0 0 0-1.44 1 1 0 0 0-.78-.33H55zM64 12.22a3.12 3.12 0 0 1-4.4 0 3.07 3.07 0 0 1-.9-2.22 3.07 3.07 0 0 1 .88-2.22 3.1 3.1 0 0 1 4.4 0 3.07 3.07 0 0 1 .89 2.22 3.07 3.07 0 0 1-.87 2.22zm-3.83-.5a2.31 2.31 0 0 0 3.26 0 2.35 2.35 0 0 0 .65-1.72 2.35 2.35 0 0 0-.67-1.72 2.31 2.31 0 0 0-3.26 0 2.35 2.35 0 0 0-.66 1.72 2.35 2.35 0 0 0 .66 1.72zM65.95 13V7h.94l2.92 4.67V7h.77v6h-.8l-3.06-4.89V13zM71.95 13V7h.77v6zM74.09 13V7h2.17a1.76 1.76 0 0 1 1.22.46A1.51 1.51 0 0 1 78 8.63a1.31 1.31 0 0 1-.22.75 1.39 1.39 0 0 1-.59.49 1.52 1.52 0 0 1 .73.52 1.36 1.36 0 0 1 .29.86 1.57 1.57 0 0 1-.54 1.22 1.85 1.85 0 0 1-1.28.49zm.77-3.43h1.4a.9.9 0 0 0 .7-.29A.89.89 0 0 0 77 8a.86.86 0 0 0-.67-.29h-1.47zm0 2.69h1.55a.92.92 0 0 0 .72-.31 1 1 0 0 0 .28-.68 1 1 0 0 0-1-1h-1.55zM79.24 13V7H80v5.26h2.6V13zM87.08 7.74h-2.73v1.9h2.46v.72h-2.46v1.9h2.73V13h-3.5V7h3.5zM91.74 13.13a2.24 2.24 0 0 1-1.28-.43 2 2 0 0 1-.82-1.2l.7-.28a1.61 1.61 0 0 0 .51.83 1.3 1.3 0 0 0 .88.34 1.4 1.4 0 0 0 .86-.26.84.84 0 0 0 .36-.72.92.92 0 0 0-.36-.77 3.69 3.69 0 0 0-1.13-.51 3 3 0 0 1-1.21-.65 1.36 1.36 0 0 1-.41-1 1.49 1.49 0 0 1 .51-1.12 1.87 1.87 0 0 1 1.33-.48 1.93 1.93 0 0 1 1.24.38 1.76 1.76 0 0 1 .62.83l-.7.29a1 1 0 0 0-.37-.53 1.31 1.31 0 0 0-1.53 0 .75.75 0 0 0-.31.62.7.7 0 0 0 .29.57 2.78 2.78 0 0 0 .85.41 7.24 7.24 0 0 1 .74.28 3.38 3.38 0 0 1 .6.36 1.42 1.42 0 0 1 .46.55 1.79 1.79 0 0 1 .16.77 1.65 1.65 0 0 1-.18.78 1.46 1.46 0 0 1-.48.54 2.37 2.37 0 0 1-.64.31 2.4 2.4 0 0 1-.69.09zM96.94 13.13a2.11 2.11 0 0 1-1.61-.65 2.39 2.39 0 0 1-.62-1.71V7h.77v3.8a1.72 1.72 0 0 0 .38 1.2A1.54 1.54 0 0 0 98 12a1.72 1.72 0 0 0 .37-1.15V7h.77v3.77a2.43 2.43 0 0 1-.6 1.71 2.1 2.1 0 0 1-1.6.65zM100.4 13V7h2a1.9 1.9 0 0 1 1.32.51 1.73 1.73 0 0 1 .15 2.39 1.78 1.78 0 0 1-1 .61l1.68 2.49h-.91L102 10.57h-.86V13zm.77-3.15h1.24a1.13 1.13 0 0 0 .79-.3 1 1 0 0 0 .33-.76 1.06 1.06 0 0 0-.29-.72 1 1 0 0 0-.78-.33h-1.29z"/></svg>