<svg height="17" width="60" viewBox="8 5 60 17" xmlns="http://www.w3.org/2000/svg"><path d="M53.005 17.902h1.748l4.081-9.878h-2.331l-2.494 6.466h-.025l-2.449-6.466h-2.486l3.956 9.878zm-4.246-5.847h-3.873v2.014h1.776v1.449c-.404.224-1.107.49-2.056.49-1.859 0-3.076-1.185-3.076-3.029 0-1.854 1.217-3.197 3.076-3.197 1.104 0 1.817.314 2.406.937l1.537-1.647c-.993-.925-2.378-1.273-3.943-1.273-3.09 0-5.425 1.997-5.425 5.181 0 3.172 2.335 5.042 5.425 5.042 1.454 0 2.865-.282 4.152-.951v-5.016zm-14.724 5.847h1.932v-7.986h2.852v-1.892h-7.609v1.892h2.825v7.986zm-10.078-7.903h1.512c1.845 0 3.397.917 3.397 2.87 0 2.248-1.524 3.02-3.552 3.02h-1.358v-5.89zm-1.956 7.903h3.565c2.95 0 5.564-1.721 5.564-4.921 0-3.611-2.67-4.958-5.859-4.958h-3.271v9.879zm-3.995-8.912c0 .646.547 1.177 1.218 1.177.669 0 1.216-.531 1.216-1.177 0-.671-.547-1.217-1.216-1.217-.671 0-1.218.545-1.218 1.217m.243 8.912h1.898v-6.804h-1.898v6.804z" fill="#4B448F"/></svg>
