<svg width="74" height="19" viewBox="0 0 74 19" xmlns="http://www.w3.org/2000/svg" xmlns:xlink="http://www.w3.org/1999/xlink"><title>Page 1</title><defs><path id="a" d="M7.582.02H.492v16.075h7.09V.02z"/><path id="c" d="M0 .716V3.78h3.07V.715H0z"/></defs><g fill="none" fill-rule="evenodd"><g transform="translate(9.23 .518)"><mask id="b" fill="#fff"><use xlink:href="#a"/></mask><path d="M5.23 14.632c-.528-.03-1.08-.227-1.41-.655-.33-.406-.415-.943-.424-1.45V7.56c.006-.958-.01-1.915.01-2.87h2.79c-.057-.488-.114-.978-.185-1.462-.87 0-1.742 0-2.613-.003v-1.93A.857.857 0 0 0 3.23.76C3.025.485 2.7.337 2.382.236 1.77.056 1.128.016.493.02v.003C.49 2.386.494 4.75.492 7.116c.004 1.3-.004 2.604.01 3.906.03.755.054 1.518.257 2.252.168.643.506 1.25 1.014 1.69.833.738 1.958 1.085 3.06 1.13.926.015 1.852-.105 2.752-.318-.036-.43-.1-.86-.15-1.29-.733.07-1.464.18-2.2.146" fill="#B31F3A" mask="url(#b)"/></g><g transform="translate(0 12.826)"><mask id="d" fill="#fff"><use xlink:href="#c"/></mask><path d="M2.258.894c-.3-.165-.656-.21-.993-.157C.79.817.36 1.14.153 1.575c-.278.557-.17 1.28.265 1.725.4.43 1.055.592 1.61.398.653-.21 1.107-.897 1.036-1.577-.036-.51-.35-.99-.806-1.226" fill="#B31F3A" mask="url(#d)"/></g><path d="M24.73 12.925c-.146.603-.42 1.2-.892 1.616-.52.474-1.252.644-1.94.62-.526-.016-1.068-.204-1.43-.598-.494-.508-.62-1.27-.52-1.95.066-.613.355-1.21.836-1.608.662-.563 1.554-.748 2.403-.808.573-.022 1.145-.005 1.717-.01-.006.915.046 1.844-.175 2.74M27.27 6.66a4.273 4.273 0 0 0-1.395-1.615c-.78-.553-1.702-.868-2.633-1.056-1.58-.325-3.2-.228-4.804-.243h-.003c.06.49.117.977.186 1.464.764.004 1.53-.01 2.295.01.872.048 1.762.15 2.562.516.544.25 1.024.683 1.237 1.252.2.503.195 1.054.186 1.585h-1.137c-.892.006-1.79-.034-2.677.108-.972.145-1.95.445-2.732 1.058a3.42 3.42 0 0 0-1.21 1.844 4.604 4.604 0 0 0-.03 2.13c.183.78.603 1.518 1.24 2.018.732.584 1.68.824 2.602.872.89.042 1.807-.037 2.63-.4.536-.243 1.048-.617 1.31-1.155 0 .178-.002.363.08.526.174.38.56.605.938.75.603.22 1.254.29 1.892.285-.006-2.504 0-5.007-.003-7.512-.018-.834-.158-1.683-.535-2.434M6.41 3.81c-.614-.186-1.264-.223-1.902-.212v-.002 11.448c.002.22-.023.454.077.66.145.32.468.515.788.634.652.234 1.358.27 2.044.274V4.876a.875.875 0 0 0-.163-.532c-.198-.28-.526-.432-.844-.534m67.218 14.683c-1.08-.2-2.16-.386-3.23-.65-.78-.196-1.556-.416-2.29-.748-.37-.174-.735-.37-1.024-.66-.18-.185-.33-.422-.324-.686-.015-.37.184-.724.474-.943.33-.258.734-.394 1.137-.49a7.253 7.253 0 0 1 1.674-.157c.253.004.55-.14.596-.41.067-.435-.22-.82-.523-1.097-.61-.537-1.297-.978-2.006-1.372-1.653-.905-3.537-1.477-5.437-1.36v-.002c-.382.028-.768.042-1.14.148-.09.032-.253.094-.186.22.138.15.338.217.524.29.858.294 1.752.474 2.647.6.63.073 1.265.144 1.887.27.186.05.39.078.547.195.115.104-.005.247-.116.29-.403.18-.854.193-1.286.233-.584.01-1.158.003-1.738.015-1.513.042-3.026.218-4.496.582a18.89 18.89 0 0 0-5.437 2.28c-1.472.923-2.964 1.82-4.53 2.583-.802.373-1.623.755-2.507.887-.156.02-.278.208-.176.348.146.162.387.115.584.114.53-.057 1.054-.188 1.57-.332 1.73-.5 3.393-1.204 5.04-1.928a14.276 14.276 0 0 1 3.147-.95 9.873 9.873 0 0 1 3.623.022c1.672.337 3.256.99 4.817 1.663 1.008.426 2.055.756 3.122 1.005 1.686.383 3.42.577 5.15.517.1-.015.214-.086.19-.203.026-.16-.143-.252-.28-.274M62.673 9.917h.002-.002zM34.5 15.15c-.558-.03-1.136-.256-1.462-.727-.325-.447-.37-1.018-.372-1.552.003-3.7 0-7.4 0-11.102a.853.853 0 0 0-.27-.61c-.284-.275-.675-.4-1.054-.484a6.843 6.843 0 0 0-1.576-.132h.003V9.41c.006 1.055-.03 2.113.06 3.167.065.79.223 1.605.668 2.28.366.56.92.965 1.52 1.246.895.42 1.9.58 2.883.488.66-.034 1.318-.134 1.96-.297-.045-.43-.1-.86-.16-1.29-.73.07-1.464.18-2.2.147m10.63-2.465c-.227.582-.548 1.13-.987 1.58-.35.353-.78.633-1.258.773-.713.205-1.51.145-2.168-.204-.546-.285-.98-.748-1.308-1.265-.513-.808-.76-1.754-.862-2.698-.094-.82-.008-1.652.186-2.452.21-.857.597-1.692 1.222-2.332a2.888 2.888 0 0 1 1.824-.88l.002.01a2.861 2.861 0 0 1 1.666.345c.594.33 1.05.868 1.375 1.457.38.68.586 1.44.696 2.206a7.125 7.125 0 0 1-.39 3.46m3.175-3.144c-.077-1.034-.377-2.06-.913-2.95a5.519 5.519 0 0 0-1.99-1.973c-1.27-.734-2.79-.995-4.243-.815h.003c-1.56.19-3.098.93-4.06 2.198-1.114 1.43-1.497 3.322-1.287 5.096.173 1.585.91 3.148 2.167 4.16 1.11.892 2.543 1.33 3.96 1.354 1.206.017 2.436-.268 3.485-.883a5.429 5.429 0 0 0 1.563-1.37c1.056-1.355 1.455-3.13 1.315-4.818" fill="#B31F3A"/></g></svg>