<svg width="68" height="18" viewBox="0 0 68 18" xmlns="http://www.w3.org/2000/svg"><title>carriers/color/web/idbus</title><path d="M28.838 6.21a.803.803 0 0 0-.808.808v3.467c0 1.163-.6 1.76-1.586 1.76-.987 0-1.586-.62-1.586-1.817v-3.41c0-.45-.358-.81-.81-.81a.802.802 0 0 0-.808.81v3.453c0 2.166 1.21 3.266 3.182 3.266 1.976 0 3.225-1.09 3.225-3.315V7.02c0-.45-.356-.81-.81-.81zm2.71 0c-.45 0-.81.357-.81.81v5.856c0 .452.36.81.81.81.453 0 .81-.358.81-.81V7.02a.803.803 0 0 0-.81-.81zm-12.9 6.047c-1.302 0-2.225-1.06-2.225-2.32 0-1.26.902-2.3 2.206-2.3 1.3 0 2.225 1.06 2.225 2.322 0 1.256-.905 2.297-2.206 2.297zm0-6.11c-2.268 0-3.918 1.723-3.918 3.812 0 2.087 1.628 3.788 3.9 3.788 2.267 0 3.916-1.722 3.916-3.81 0-2.09-1.628-3.79-3.897-3.79zm19.492 5.294c0 .553-.434.807-1.156.807h-1.942v-1.633h1.89c.837 0 1.208.308 1.208.806v.02zm-3.098-3.754h1.613c.69 0 1.07.276 1.07.764v.022c0 .55-.455.785-1.176.785H35.04v-1.57zm3.332 2.11c.53-.295.976-.762.976-1.6v-.02c0-.51-.17-.924-.51-1.263-.423-.424-1.092-.658-1.94-.658h-2.632a.81.81 0 0 0-.82.817v5.79c0 .457.363.817.82.817h2.716c1.677 0 2.78-.68 2.78-2.037v-.02c0-1-.53-1.497-1.39-1.826zm7.628-3.604a.81.81 0 0 0-.818.816v3.5c0 1.177-.604 1.782-1.602 1.782-.997 0-1.602-.626-1.602-1.835V7.008a.81.81 0 0 0-.817-.816.81.81 0 0 0-.817.816v3.49c0 2.184 1.22 3.298 3.215 3.298 1.996 0 3.26-1.103 3.26-3.35V7.007A.81.81 0 0 0 46 6.192zm4.923 3.043c-1.285-.328-1.603-.487-1.603-.976v-.022c0-.36.33-.647.955-.647.51 0 1.02.182 1.56.5a.782.782 0 0 0 .414.116c.425 0 .765-.33.765-.753 0-.318-.18-.54-.36-.646-.67-.425-1.455-.658-2.357-.658-1.517 0-2.6.89-2.6 2.237v.02c0 1.475.966 1.888 2.462 2.27 1.242.32 1.497.53 1.497.945v.02c0 .436-.404.7-1.072.7-.722 0-1.337-.254-1.9-.667a.778.778 0 0 0-.466-.15.752.752 0 0 0-.766.754c0 .253.127.487.308.615a4.8 4.8 0 0 0 2.79.89c1.603 0 2.728-.827 2.728-2.3v-.022c0-1.295-.848-1.835-2.355-2.228zM31.535 2.71a.816.816 0 0 1-.804-.826c0-.455.362-.826.806-.826.444 0 .805.37.805.826 0 .457-.36.827-.804.827zm0-2.71c-.968 0-1.753.805-1.753 1.8 0 .993 1.754 3.314 1.754 3.314S33.29 2.794 33.29 1.8c0-.995-.786-1.8-1.754-1.8" fill="#CA005D" fill-rule="evenodd"/></svg>