<svg width="68" height="18" viewBox="0 0 68 18" xmlns="http://www.w3.org/2000/svg"><title>carriers/color/web/ouigo</title><path d="M25.705 9.706V5.882c0-.485.37-.87.836-.87.466 0 .834.385.834.87v3.78c0 1.288.618 1.955 1.637 1.955 1.018 0 1.637-.644 1.637-1.897V5.886c0-.488.37-.872.833-.872.467 0 .836.384.836.872v3.766c0 2.397-1.288 3.57-3.326 3.57-2.036 0-3.282-1.187-3.284-3.516zm8.33-3.827c0-.5.36-.894.822-.894.457 0 .82.394.82.894v6.482c0 .502-.363.894-.82.894-.458 0-.82-.392-.82-.892V5.88zm1.69-2.502a.868.868 0 1 1-1.735 0 .868.868 0 0 1 1.735 0zm6.16 5.16c-.4 0-.728.34-.728.756a.73.73 0 0 0 .727.747h1.22v1.083c-.384.37-.93.52-1.71.52-1.342 0-2.362-1.07-2.362-2.512 0-1.348 1.034-2.477 2.25-2.477.716 0 1.2.204 1.658.543.117.09.27.18.508.18.456 0 .822-.383.822-.856a.883.883 0 0 0-.344-.698c-.686-.498-1.443-.767-2.597-.767-2.298 0-4.045 1.85-4.045 4.098 0 2.33 1.69 4.072 4.054 4.072 1.178 0 2.17-.37 2.888-.952.37-.296.445-.53.445-1.038V9.41c0-.49-.37-.868-.83-.868l-1.96-.004zm7.5-3.486c-2.188 0-3.778 1.85-3.778 4.097 0 2.25 1.568 4.073 3.755 4.073 2.188 0 3.78-1.846 3.78-4.098 0-2.247-1.57-4.073-3.757-4.073zm0 6.603c-1.25 0-2.137-1.156-2.137-2.53 0-1.37.865-2.505 2.116-2.505 1.25 0 2.136 1.16 2.136 2.53 0 1.37-.87 2.505-2.115 2.505zm-28.81-6.603c-2.36 0-4.08 1.85-4.08 4.097 0 2.25 1.695 4.072 4.058 4.072 2.362 0 4.08-1.845 4.08-4.098 0-2.246-1.695-4.072-4.057-4.072zm0 6.603c-1.35 0-2.308-1.156-2.308-2.53 0-1.37.938-2.505 2.286-2.505 1.35 0 2.308 1.158 2.308 2.53 0 1.368-.933 2.504-2.284 2.504" fill="#E3036F" fill-rule="evenodd"/></svg>