<svg width="22" height="18" viewBox="0 0 68 56" xmlns="http://www.w3.org/2000/svg" fill-rule="evenodd" clip-rule="evenodd" stroke-linejoin="round" stroke-miterlimit="1.414"><clipPath id="a"><path d="M0 0h67.5v55.164H0z"/></clipPath><g clip-path="url(#a)"><path d="M60.94 44.708c0-6.745.01-13.49-.005-20.235-.007-2.908.19-5.847-1.774-8.372-1.892-2.43-4.316-3.693-7.39-3.697-8.138-.008-16.277-.006-24.415-.006-5.726 0-11.452.005-17.178.008H8.67c.622-3.316 1.02-6.504 1.86-9.57.583-2.135 2.78-3.13 5.062-2.76 10.5 1.708 20.998 3.438 31.496 5.164 5.3.87 10.597 1.754 15.898 2.617 3.39.552 4.96 2.66 4.404 6.08-1.51 9.29-3.023 18.574-4.614 27.847-.186 1.083-.872 2.08-1.326 3.118l-.51-.194m-56.742 1.01v1.84c0 2.846.647 3.487 3.52 3.487 6.955.002 13.91-.004 20.867.002 7.568.005 15.138.02 22.706.03 1.566.002 2.63-.726 2.764-2.062.106-1.048.022-2.117.022-3.297H4.198zm.004-7.118h49.903v-1.624c.003-4.71.008-9.418.007-14.128 0-2.898-.567-3.455-3.53-3.456-9.76-.003-19.52-.002-29.278-.002-4.897 0-9.794-.02-14.69.02-1.456.012-2.382.862-2.394 2.257-.044 5.576-.018 11.153-.018 16.933m24.892 16.56c-7.32 0-14.64.01-21.96-.002-4.516-.008-7.11-2.613-7.12-7.173C-.006 39.693 0 31.4 0 23.11c0-5.658 2.783-8.184 8.444-7.918 3.82.18 7.655.154 11.483.15 10.64-.018 21.278-.123 31.916-.08 3.823.015 6.4 2.745 6.418 6.585.043 8.908.046 17.817.007 26.725-.015 3.913-2.676 6.55-6.594 6.568-7.527.038-15.053.01-22.58.01v.01z" fill="#FFF" fill-rule="nonzero"/></g></svg>