<svg xmlns="http://www.w3.org/2000/svg" viewBox="0 0 44.328358 26" height="34" width="110" clip-rule="evenodd" fill-rule="evenodd" stroke-linejoin="round" stroke-miterlimit="1.414"><g transform="translate(-18.353)"><clipPath id="a"><path d="M16.97 5.13c-.85-.965-2.383-1.38-4.345-1.38H6.932c-.4 0-.742.292-.805.688l-2.37 15.035c-.048.296.182.565.482.565h3.513l.883-5.6-.028.176c.062-.396.4-.688.802-.688h1.67c3.28 0 5.85-1.333 6.6-5.188.023-.114.042-.225.06-.333-.096-.05-.096-.05 0 0 .223-1.425-.002-2.395-.773-3.274z"/></clipPath><g clip-path="url(#a)"><path fill="#049" fill-rule="nonzero" d="M0 0h21.573v23.788H0z"/></g><clipPath id="b"><path d="M60.088 12.253c-.215 1.41-1.292 1.41-2.334 1.41h-.593l.418-2.634c.025-.16.162-.278.323-.278h.273c.71 0 1.38 0 1.725.404.207.242.27.6.19 1.096zm-.453-3.682h-3.93c-.27 0-.498.198-.54.464l-1.59 10.078c-.03.2.123.38.324.38h2.015c.188 0 .348-.137.377-.323l.45-2.858c.043-.266.272-.462.54-.462h1.244c2.59 0 4.083-1.252 4.474-3.736.177-1.085.008-1.94-.5-2.536-.56-.657-1.55-1.005-2.865-1.005z"/></clipPath><g clip-path="url(#b)"><path fill="#00ade5" fill-rule="nonzero" d="M49.82 4.82h17v18.42h-17z"/></g><clipPath id="c"><path d="M31.696 12.253c-.215 1.41-1.293 1.41-2.335 1.41h-.59l.415-2.634c.025-.16.162-.278.323-.278h.272c.71 0 1.38 0 1.724.404.207.242.27.6.192 1.096zm-.454-3.682h-3.93c-.27 0-.498.198-.54.464l-1.59 10.078c-.03.2.123.38.324.38h1.877c.27 0 .497-.196.54-.46l.428-2.72c.044-.266.273-.462.54-.462h1.245c2.59 0 4.084-1.252 4.474-3.736.175-1.085.006-1.94-.5-2.536-.56-.657-1.55-1.005-2.867-1.005z"/></clipPath><g clip-path="url(#c)"><path fill="#049" fill-rule="nonzero" d="M21.43 4.82h16.996v18.42H21.43z"/></g><clipPath id="d"><path d="M41.1 16.162c-.183 1.075-1.036 1.798-2.125 1.798-.546 0-.983-.176-1.264-.51-.276-.328-.38-.798-.293-1.32.17-1.067 1.037-1.81 2.11-1.81.534 0 .968.176 1.254.51.29.34.403.812.32 1.332zm2.62-3.662h-1.88c-.16 0-.298.116-.324.275l-.082.526-.132-.19c-.408-.59-1.316-.79-2.223-.79-2.08 0-3.858 1.578-4.203 3.788-.18 1.103.075 2.157.7 2.892.575.674 1.394.956 2.37.956 1.677 0 2.606-1.077 2.606-1.077l-.084.52c-.03.2.12.38.323.38h1.695c.268 0 .496-.195.538-.46l1.018-6.444c.03-.198-.123-.378-.324-.378z"/></clipPath><g clip-path="url(#d)"><path fill="#049" fill-rule="nonzero" d="M31.07 8.57H47.8v15.135H31.07z"/></g><clipPath id="e"><path d="M68.956 16.162c-.182 1.075-1.035 1.798-2.124 1.798-.546 0-.983-.176-1.264-.51-.28-.328-.383-.798-.295-1.32.17-1.067 1.037-1.81 2.11-1.81.534 0 .968.176 1.254.51.288.34.402.812.32 1.332zM71.58 12.5h-1.883c-.16 0-.298.116-.324.275l-.082.526-.13-.19c-.407-.59-1.316-.79-2.223-.79-2.08 0-3.855 1.578-4.2 3.788-.18 1.103.074 2.157.7 2.892.574.674 1.393.956 2.37.956 1.676 0 2.606-1.077 2.606-1.077l-.085.52c-.03.2.123.38.324.38h1.696c.27 0 .498-.195.54-.46l1.017-6.444c.032-.198-.122-.378-.324-.378z"/></clipPath><g clip-path="url(#e)"><path fill="#00ade5" fill-rule="nonzero" d="M58.93 8.57h16.728v15.135h-16.73z"/></g><clipPath id="f"><path d="M52.698 12.32h-1.892c-.18 0-.35.09-.45.24l-2.61 3.844-1.107-3.693c-.07-.23-.284-.39-.525-.39h-1.86c-.224 0-.382.223-.31.436l2.083 6.114-1.96 2.764c-.154.216.002.516.268.516h1.89c.178 0 .346-.087.448-.234l6.29-9.08c.152-.218-.003-.515-.268-.515z"/></clipPath><g clip-path="url(#f)"><path fill="#049" fill-rule="nonzero" d="M40.18 8.57h16.596V25.9H40.18z"/></g><clipPath id="g"><path d="M73.94 8.848L72.325 19.11c-.032.2.122.38.323.38h1.62c.27 0 .5-.196.54-.462L76.4 8.95c.033-.2-.12-.38-.322-.38h-1.816c-.16 0-.3.118-.323.278z"/></clipPath><g clip-path="url(#g)"><path fill="#00ade5" fill-rule="nonzero" d="M68.57 4.82h11.585v18.42H68.57z"/></g><clipPath id="h"><path d="M16.97 5.13c-.85-.965-2.383-1.38-4.345-1.38H6.932c-.4 0-.742.292-.805.688l-2.37 15.035c-.048.296.182.565.482.565h3.513l.883-5.6-.028.176c.062-.396.4-.688.802-.688h1.67c3.28 0 5.85-1.333 6.6-5.188.023-.114.042-.225.06-.333-.096-.05-.096-.05 0 0 .223-1.425-.002-2.395-.773-3.274z"/></clipPath><g clip-path="url(#h)"><path fill="#049" fill-rule="nonzero" d="M0 0h21.573v23.788H0z"/></g><clipPath id="i"><path d="M9.585 8.423c.038-.238.19-.433.397-.532.093-.042.198-.067.307-.067h4.462c.528 0 1.02.034 1.472.107.13.02.254.043.376.07.123.028.24.058.355.09.057.018.114.035.17.054.22.074.427.16.616.26.226-1.425 0-2.394-.77-3.273-.85-.964-2.382-1.38-4.344-1.38H6.93c-.4 0-.74.293-.803.69l-2.37 15.033c-.048.297.182.565.482.565h3.513l.883-5.6.948-6.014z"/></clipPath><g clip-path="url(#i)"><path fill="#049" fill-rule="nonzero" d="M0 0h21.573v23.787H0z"/></g><clipPath id="j"><path d="M17.735 8.57c-.017.11-.036.22-.058.335-.75 3.855-3.32 5.188-6.6 5.188H9.404c-.4 0-.74.292-.802.688l-.855 5.425-.243 1.54c-.04.258.16.493.422.493h2.963c.35 0 .65-.255.703-.6l.03-.152.558-3.54.037-.195c.054-.345.353-.6.704-.6h.444c2.87 0 5.118-1.167 5.774-4.54.274-1.41.132-2.585-.593-3.412-.22-.25-.494-.457-.812-.626z"/></clipPath><g clip-path="url(#j)"><path fill="#00ade5" fill-rule="nonzero" d="M3.75 4.82h19.27v21.167H3.75z"/></g><clipPath id="k"><path d="M16.917 8.84c-.114-.032-.232-.063-.354-.09-.122-.027-.247-.05-.376-.07-.45-.074-.944-.11-1.473-.11H10.25c-.11 0-.213.026-.306.07-.207.1-.36.295-.397.533L8.6 15.188l-.03.175c.064-.395.402-.687.803-.687h1.67c3.282 0 5.85-1.333 6.602-5.188.022-.114.04-.225.058-.334-.19-.1-.396-.187-.617-.26-.055-.02-.112-.036-.17-.053z"/></clipPath><g clip-path="url(#k)"><path fill="#00317c" fill-rule="nonzero" d="M4.82 4.82h16.633v14.293H4.82z"/></g></g></svg>
