<svg width="83" height="21" viewBox="0 0 83 21" xmlns="http://www.w3.org/2000/svg" xmlns:xlink="http://www.w3.org/1999/xlink"><title>Group 3</title><defs><path id="a" d="M26.643 13.307V.362H.723v12.945z"/><path id="c" d="M0 .931v17.723h15.324V.931z"/></defs><g fill="none" fill-rule="evenodd"><path d="M7.233 4.691h5.647c3.041 0 4.17 1.564 3.996 3.823-.26 3.735-2.519 5.82-5.56 5.82H9.839c-.434 0-.695.261-.782 1.043l-.608 4.257c0 .261-.173.434-.434.434H4.366c-.347 0-.434-.26-.347-.78L6.19 5.56c.087-.608.435-.869 1.043-.869" fill="#009DE2" fill-rule="nonzero"/><path d="M48.76 8.688h-1.91c-.435 0-.522.26-.435.608l2.346 6.864-2.346 3.3c-.173.262-.087.522.26.522h2.173c.347 0 .434-.087.608-.347l7.21-10.426c.262-.347.088-.695-.26-.695h-1.998c-.347 0-.521.174-.695.435l-3.041 4.344-1.303-4.431c-.087-.087-.26-.174-.608-.174h-.001zm-9.47 6.429c-1.215 0-2.084-.956-1.91-2.172.174-1.216 1.303-2.172 2.606-2.172s2.085.956 1.912 2.172c-.174 1.129-1.304 2.172-2.607 2.172h-.001zm1.565 1.129c.174-.173.348-.26.348-.086l-.087.52c0 .26.087.435.347.435h1.912c.347 0 .434-.087.52-.608l1.13-7.211c.087-.347 0-.521-.347-.521h-2.085c-.174 0-.261.087-.348.347l-.087.435c0 .26-.174.26-.26 0-.348-.87-1.217-1.217-2.52-1.13-2.867.087-4.865 2.259-5.04 5.039-.173 2.172 1.39 3.91 3.476 3.91 1.65-.087 2.346-.521 3.04-1.13h.001zm-12.597-5.82h1.737c1.043 0 1.825-.782 1.825-2.086.087-.868-.522-1.39-1.39-1.39h-1.651l-.521 3.476zm3.475-5.995c1.91 0 3.649 1.043 3.388 3.649-.261 3.04-1.911 4.778-4.518 4.778h-2.258c-.348 0-.522.26-.61.782l-.433 2.78c-.087.435-.261.608-.608.608h-2.085c-.348 0-.435-.173-.348-.695l1.738-11.12c.087-.521.26-.782.695-.782h5.039z" fill="#113984" fill-rule="nonzero"/><g transform="translate(56 4.069)"><mask id="b" fill="#fff"><use xlink:href="#a"/></mask><path d="M24.385 13.046h-2.172c-.174 0-.261-.174-.261-.26L23.864.795c0-.174.173-.26.347-.26h2.172c.174 0 .26.173.26.26L24.82 12.698c-.086.174-.26.348-.434.348h-.001zm-8.601-1.998c-1.216 0-2.085-.956-1.911-2.172.173-1.216 1.303-2.172 2.606-2.172 1.216 0 2.085.956 1.91 2.172-.172 1.13-1.39 2.172-2.605 2.172zm1.564 1.13c.174-.175.347-.26.347-.088l-.087.522c0 .26.087.434.348.434h1.91c.349 0 .436-.087.523-.608l1.129-7.21c.087-.349 0-.522-.347-.522h-2.086c-.173 0-.26.087-.347.347l-.087.435c0 .26-.174.26-.261 0-.347-.869-1.216-1.217-2.52-1.13-2.866.087-4.864 2.26-5.038 5.04-.174 2.171 1.39 3.91 3.475 3.91 1.65-.088 2.346-.523 3.04-1.13h.001zM4.75 6.355h1.738c1.043 0 1.825-.782 1.825-2.085.086-.868-.522-1.39-1.391-1.39h-1.65L4.75 6.356v-.001zM8.226.362c1.91 0 3.649 1.042 3.388 3.65-.261 3.04-1.911 4.777-4.518 4.777h-2.26c-.346 0-.52.261-.607.782l-.434 2.78c-.087.434-.261.608-.608.608H1.102c-.348 0-.435-.174-.348-.695l1.738-11.12c.087-.522.26-.782.695-.782h5.039z" fill="#009DE2" fill-rule="nonzero" mask="url(#b)"/></g><g transform="translate(0 -.931)"><mask id="d" fill="#fff"><use xlink:href="#c"/></mask><path d="M3.671.931h5.647c1.564 0 3.475.087 4.778 1.13.869.781 1.304 1.911 1.217 3.214-.348 4.344-2.954 6.776-6.429 6.776h-2.78c-.435 0-.782.348-.956 1.13l-.782 4.952c-.087.347-.174.521-.434.521H.456c-.347 0-.521-.26-.434-.955l2.52-15.812c.086-.695.434-.956 1.129-.956" fill="#113984" fill-rule="nonzero" mask="url(#d)"/></g><path d="M5.235 11.816l.956-6.255c.087-.608.434-.87 1.042-.87h5.647c.956 0 1.65.175 2.259.435-.608 3.823-3.041 5.995-6.342 5.995h-2.78c-.348 0-.608.174-.782.695" fill="#172C70" fill-rule="nonzero"/></g></svg>