<svg width="68" height="18" viewBox="0 0 68 18" xmlns="http://www.w3.org/2000/svg"><title>carriers/color/web/renfe</title><path d="M28.89 6.42c-.92-.167-1.766-.18-2.874-.03-1.59.21-2.455.753-2.847 1.702a6.276 6.276 0 0 0-.41 1.71c-.11 1.017.085 1.954 1.36 2.058 1.716.14 3.016.11 4.45-.114l.478-.636c-1.354.222-2.893.17-3.406.084-1.023-.17-.775-1.407-.775-1.407.907.11 2.005.084 2.783 0 .678-.063 2.012-.237 2.393-1.27.374-1.024.09-1.865-1.152-2.098zm21.41 0c-.912-.167-1.764-.18-2.878-.03-1.585.21-2.45.753-2.84 1.702a6.283 6.283 0 0 0-.417 1.71c-.1 1.017.09 1.954 1.365 2.058 1.718.14 3.016.11 4.447-.114l.484-.636c-1.354.222-2.893.17-3.41.084-1.02-.17-.768-1.407-.768-1.407.903.11 2.004.084 2.782 0 .68-.063 2.01-.237 2.388-1.27.378-1.024.088-1.865-1.152-2.098zM19.376 8.335c.124-.663.398-1.05 1.12-1.188.643-.114 1.866-.114 2.57-.033l.45-.67c-1.063-.08-2.854-.155-3.917 0-1.516.218-2.077.54-2.297 1.505-.122.514-.532 3.12-.683 3.87h2.195c.156-.87.45-2.896.56-3.484zM42.412 8.2a170.024 170.024 0 0 1-.572 3.12c-.29 1.315-.547 2.533-1.795 3.408-.66.46-1.594.803-2.76.744l.35-.528c.91-.005 1.462-.742 1.632-1.245.13-.398.332-1.23.542-2.446l.87-4.847c.295-1.318.5-2.44 1.747-3.315.664-.46 1.786-.732 2.925-.74l-.398.527a1.83 1.83 0 0 0-1.66 1.007c-.188.365-.39 1.432-.568 2.51h1.66l-.394.572c-.894 0-1.433.435-1.58 1.23zm-5.66-1.81h-4.88c-.253 1.518-.74 4.135-.923 5.43h2.03c.148-1.002.63-3.605.846-4.757h1.637c.692 0 1.205.472 1.09 1.273-.093.638-.384 2.167-.64 3.505h2.044c.22-.914.51-2.75.647-3.478.212-1.106-.42-1.97-1.852-1.97zM49.58 8.28c-.286.593-.672.726-1.174.832-.55.107-1.274.13-2.064.066a5.63 5.63 0 0 1 .297-1.033c.27-.644.67-1.052 1.423-1.227.326-.076.614-.073 1.01.01.584.124.768.822.507 1.352zm-21.41 0c-.288.593-.675.726-1.18.832-.545.107-1.267.13-2.06.066.053-.323.193-.79.297-1.033.27-.644.673-1.052 1.42-1.227.333-.076.615-.073 1.016.01.588.124.77.822.508 1.352z" fill="#892169" fill-rule="evenodd"/></svg>