<svg width="20" height="20" viewBox="0 0 17 17" xmlns="http://www.w3.org/2000/svg" fill-rule="evenodd" clip-rule="evenodd" stroke-linejoin="round" stroke-miterlimit="1.414"><path d="M14.48 7.363l-7.3 7.3c-.047.047-.094.047-.14 0L1.722 9.346a.096.096 0 0 1-.028-.07c0-.02.005-.048.028-.072l7.3-7.3c.113-.11.374-.21.56-.21.016 0 .032 0 .046.002l4.298.527c.1.012.22.135.233.234l.528 4.3c.022.174-.083.48-.21.605zm1.203-.73l-.526-4.297c-.07-.553-.555-1.04-1.107-1.106L9.75.703c-.48-.06-1.096.155-1.436.495l-7.3 7.3c-.207.207-.32.484-.32.78 0 .294.113.57.32.78L6.33 15.37c.208.207.484.322.78.322a1.1 1.1 0 0 0 .78-.323l7.298-7.298c.34-.34.554-.96.495-1.438z" fill="#FFF" fill-rule="nonzero" stroke-width=".8" stroke="#FFF"/><path d="M10.747 6.984a.966.966 0 0 1-1.371 0 .963.963 0 0 1-.283-.685.966.966 0 0 1 .969-.971c.26 0 .503.1.687.283a.971.971 0 0 1 0 1.37m-.686-2.662c-.527 0-1.023.207-1.397.58-.374.374-.58.87-.58 1.4 0 .527.206 1.023.58 1.397.374.373.87.58 1.397.58a1.97 1.97 0 0 0 1.4-.58 1.98 1.98 0 0 0 0-2.796 1.97 1.97 0 0 0-1.4-.58" fill="#FFF" fill-rule="nonzero" stroke-width=".3" stroke="#FFF"/></svg>