<svg width="55" height="20" viewBox="0 0 55 20" xmlns="http://www.w3.org/2000/svg"><title>Artboard</title><g fill="none" fill-rule="evenodd"><path fill="#E30521" d="M0 20h55V0H0z"/><path fill="#FFF" d="M42.052 5.679h1.882V3.796h-1.882z"/><g fill="#FFF"><path d="M42.052 6.4c-.18 0-1.96-.212-2.637 1.156v-.987h-3.011l-1.666 4.999-1.711-5h-2.021l1.895 5.019h-3.768V3.796H27.04v9.508h6.486s.066.155.08.203c.122.414-.114 1.08-.787 1.08h-1.132v1.618l1.668-.003c.83 0 1.576-.602 2-1.727l2.262-6.106v4.934h1.892V10.43c0-2.682 2.33-2.273 2.542-2.27v5.144h1.88V7.56h-1.88V6.4zM46.126 4.558h.14v-.311h.312v-.14h-.312v-.311h-.14v.31h-.31v.14h.31zM46.126 5.679h.14v-.311h.312v-.14h-.312v-.31h-.14v.31h-.31v.14h.31zM48.37 4.558h.143v-.311h.31v-.14h-.31v-.311h-.143v.31h-.309v.14h.31zM47.25 4.558h.139v-.311h.309v-.14h-.309v-.311h-.139v.31h-.312v.14h.312zM47.25 5.679h.139v-.311h.309v-.14h-.309v-.31h-.139v.31h-.312v.14h.312zM6.1 6.905H3.76v-1.23h6.038v1.23h-2.34v6.404H6.1zM17.398 12.748c-.928.496-1.983.754-3.16.754-2.35 0-4.031-1.595-4.031-3.977 0-2.448 1.681-4.043 4.031-4.043 1.165 0 2.21.247 3.008.959l-1.003 1.014c-.485-.475-1.229-.745-1.994-.745-1.574 0-2.62 1.208-2.62 2.728 0 1.628 1.046 2.835 2.62 2.835.69 0 1.315-.129 1.79-.399v-1.8h-1.564V8.845h2.922v3.903zM17.903 5.676h1.563l2.08 5.768 2.146-5.768h1.466l-3.084 7.633H20.9zM48.883 10.161a2.86 2.86 0 0 1-.38.098 5.72 5.72 0 0 1-.428.066 8.402 8.402 0 0 0-.446.065 3.39 3.39 0 0 0-.414.105 1.242 1.242 0 0 0-.355.177.83.83 0 0 0-.243.282.907.907 0 0 0-.092.432c0 .166.031.306.092.42a.7.7 0 0 0 .25.268c.105.066.227.111.368.137.14.027.284.04.433.04.368 0 .653-.06.854-.183a1.23 1.23 0 0 0 .446-.44c.097-.17.156-.342.178-.517a3.73 3.73 0 0 0 .032-.419v-.695a.815.815 0 0 1-.295.164m-3.685-2.627a2.23 2.23 0 0 1 .736-.694c.298-.175.633-.3 1.005-.374a5.74 5.74 0 0 1 1.123-.11c.342 0 .687.023 1.038.071.35.048.67.142.958.281.29.14.526.335.71.584.184.25.276.578.276.99v3.524c0 .305.017.598.052.877.036.28.097.49.184.63h-1.89a2.71 2.71 0 0 1-.132-.656 2.43 2.43 0 0 1-1.052.642 4.236 4.236 0 0 1-1.234.184c-.325 0-.627-.04-.907-.118a2.067 2.067 0 0 1-.735-.368 1.69 1.69 0 0 1-.493-.628 2.11 2.11 0 0 1-.178-.904c0-.385.068-.7.204-.95.136-.249.311-.448.526-.596.214-.149.46-.26.735-.335.276-.074.554-.132.835-.176.28-.044.556-.079.827-.105.271-.026.512-.066.723-.118.21-.053.376-.128.5-.23.122-.1.178-.246.17-.439 0-.2-.033-.359-.099-.478a.725.725 0 0 0-.263-.275 1.042 1.042 0 0 0-.38-.13 3.234 3.234 0 0 0-.467-.034c-.368 0-.657.08-.867.236-.21.158-.333.42-.368.786H44.87c.026-.436.135-.799.328-1.087"/></g></g></svg>