<svg width="76" height="20" viewBox="0 0 76 20" xmlns="http://www.w3.org/2000/svg"><title>Page 1</title><g fill="none" fill-rule="evenodd"><path d="M34.286 19.25c-.683.295-.96.28-1.37-.124-.294-.3-1.137-1.12-1.137-1.12 12.91-5.49 37.274-7.645 43.84-7.493l.107.24c-11.38.644-31.984 4.145-41.44 8.496zm13.042-8.35c.273.154.867.118 1.1.068.366-.068 4.454-.597 4.917-.587L52.22 9.23c-.323-.34-.658-.51-1.45-.38-1.572.26-3.232.88-4.205 1.3l.763.752zm9.363-4.617c0-.158.054-.238.12-.268l.217-.09c.12-.057.184-.123.048-.342l-.664-1.038a.774.774 0 0 1-.14-.466v-.47c0-.842-.564-1.876-1.198-2.18-.758-.37-1.69-.313-2.963.187-1.272.493-2.178 1.334-3.763 1.96-2.588 1.02-4.822.467-5.023-.858 1.324 0 2.38-.36 2.99-.664.61-.303 3.257-1.39 3.943-1.574 7.94-2.154 8.887 5.503 7.155 7.6-.148.2-.062.214.082.228.142.014 12.234 1.293 12.234 1.293l.075.177H56.215c-.41 0-.884-.283-1.076-.543L54.27 8c.676.054 1.5.084 1.726.084.37 0 .695-.24.695-.566V6.285z" fill="#AF1E35"/><path d="M34.286 19.25c-.683.295-.96.28-1.37-.124-.294-.3-1.137-1.12-1.137-1.12 12.91-5.49 37.274-7.645 43.84-7.493l.107.24c-11.38.644-31.984 4.145-41.44 8.496zm13.042-8.35c.273.154.867.118 1.1.068.366-.068 4.454-.597 4.917-.587L52.22 9.23c-.323-.34-.658-.51-1.45-.38-1.572.26-3.232.88-4.205 1.3l.763.752zm9.363-4.617c0-.158.054-.238.12-.268l.217-.09c.12-.057.184-.123.048-.342l-.664-1.038a.774.774 0 0 1-.14-.466v-.47c0-.842-.564-1.876-1.198-2.18-.758-.37-1.69-.313-2.963.187-1.272.493-2.178 1.334-3.763 1.96-2.588 1.02-4.822.467-5.023-.858 1.324 0 2.38-.36 2.99-.664.61-.303 3.257-1.39 3.943-1.574 7.94-2.154 8.887 5.503 7.155 7.6-.148.2-.062.214.082.228.142.014 12.234 1.293 12.234 1.293l.075.177H56.215c-.41 0-.884-.283-1.076-.543L54.27 8c.676.054 1.5.084 1.726.084.37 0 .695-.24.695-.566V6.285z" stroke="#AF1E35" stroke-width=".197"/><path d="M38.475 4.166a4.408 4.408 0 0 0-1.51-.267c-.582 0-1.074.158-1.427.46-.36.305-.603.808-.603 1.246 0 .355.144.675.404.894.147.12.28.202.552.344l.79.435c.208.102.278.15.38.23a.63.63 0 0 1 .22.49c0 .613-.643.682-.92.682l-.453-.043-.326-.098c-.025-.073-.04-.38-.05-.57l-.01-.207-.007-.15h-.15c-.397 0-.544.13-.597.527l-.14.915-.017.125.117.045c.532.198.947.278 1.43.278 1.325-.008 2.25-.768 2.25-1.845.01-.582-.245-.936-.938-1.31l-.168-.087-.807-.444a1.526 1.526 0 0 1-.31-.216c-.124-.102-.157-.18-.157-.34 0-.36.337-.595.854-.595.253 0 .51.05.728.137l.02.01c.015.078.04.296.057.78l.006.158.156-.01c.407-.023.544-.147.6-.537l.14-.996-.117-.046zm-6.44-.164l-.593-.013-.04.108c-.057.164-.118.28-.292.573l-.627 1.06-.34.557-.134-.367-.14-.377a20.976 20.976 0 0 1-.422-1.22l-.05-.203-.03-.122-.133-.007-.392.012-.32.008h-.16l-.23.013a.411.411 0 0 0-.278.148c-.087.085-.13.17-.2.34l-.096.222.428-.02.276.028.994 2.484-.074.625a6.486 6.486 0 0 1-.186 1.02l-.122.337-.08.215.23.006.314-.008h.07l.687.008h.055c.23 0 .362-.024.49-.164.08-.07.127-.146.203-.334l.084-.213h-.406l-.328-.016.04-.196.076-.415.05-.282.045-.273.047-.272.994-1.458.233-.325.5-.7c.255-.37.28-.4.4-.52l.274-.276-.392.008-.426.01zM24.82 7.81c-.08.067-.135.17-.216.363l-.122.257-.097.188c-.045.025-.228.038-.547.038l-.605-.017c.07-.33.145-.785.203-1.243l.156-1.328.173-1.213.05-.256.06-.35-.04.07.195-.345-.277.027h-.393l-.55.008h-.243l-.238.013a.48.48 0 0 0-.276.14c-.078.09-.122.166-.198.346l-.095.222.45-.02.34.024c-.04.22-.083.49-.12.82l-.288 2.29c-.05.425-.122.797-.187 1.025l-.134.34-.085.22.24-.003.666-.026.064.01 2.317.018h.133l.327-1.717h-.185c-.25 0-.364.01-.476.1zm-7.877-2.593l.08.59.12.745.006.02.022.1h-.925l.696-1.455zm1.813 3.48l-.918-4.71-.138.005-.39.01-.735.01c-.248 0-.34.008-.443.063-.117.036-.23.146-.35.354l-.037.076-.097.223.652-.02-1.455 2.806-.193.366-.393.73-.23.397-.295.412.3.006.476-.008.51.01.035-.12c.038-.157.085-.275.235-.6l.522-1.125.082-.182h1.402l.09.482c.105.588.153.96.153 1.168l-.016.373.17.002.315-.008h.06l.528.008h.056c.233 0 .37-.024.5-.164.077-.07.125-.146.2-.334l.086-.213h-.35l-.334-.02zm-7.34.003l.044-.196.055-.355.11-.773.168-1.308.164-1.228.07-.456.005-.034.092-.357-.207-.005-.393.01-.44.01h-.204l-.238.013a.472.472 0 0 0-.273.14.899.899 0 0 0-.193.35l-.08.216.435-.014.292.013-.04.21-.068.556-.01.057-.093.715H8.63l.023-.2.08-.608.085-.625.077-.438.04-.202.04-.194-.197-.01-.38.01-.45.01H7.74c-.244 0-.367.015-.503.15-.082.09-.124.17-.2.348l-.094.223.45-.014.302.013a9.225 9.225 0 0 0-.125.823l-.29 2.293a7.145 7.145 0 0 1-.144.876l-.147.406-.033.097-.07.21.538-.015h.07l.672.008h.06c.23 0 .365-.024.493-.164.08-.07.125-.146.2-.334l.088-.213h-.396L8.285 8.7l.045-.195.053-.355.11-.772.046-.34h1.98l-.098.81c-.043.31-.104.647-.155.86a1.985 1.985 0 0 1-.148.42l-.035.098-.067.21.54-.016h.067l.68.008h.053c.234 0 .364-.024.493-.164.08-.07.127-.146.202-.334l.086-.213h-.396l-.325-.017zM4.892 3.99l-.393.012-1.637.008H2.42L.864 4.002l-.328-.01L.4 3.986.122 5.705l.19-.003c.25-.01.352-.02.462-.11.088-.063.147-.173.224-.363l.106-.275.08-.18.013-.005c.124-.022.41-.028.8-.028l-.37 3.038c-.108.804-.18 1.082-.38 1.41l-.15.246.613-.016h.062l.818.008h.05c.25 0 .375-.017.5-.158.088-.083.132-.158.204-.34l.087-.213H3l-.343-.008.05-.22c.052-.22.125-.665.16-.98l.34-2.78c.4.008.768.014.876.036l.046.567.026.37h.146c.398-.012.54-.142.594-.528l.177-1.188-.182.004z" fill="#000"/><path d="M38.475 4.166a4.408 4.408 0 0 0-1.51-.267c-.582 0-1.074.158-1.427.46-.36.305-.603.808-.603 1.246 0 .355.144.675.404.894.147.12.28.202.552.344l.79.435c.208.102.278.15.38.23a.63.63 0 0 1 .22.49c0 .613-.643.682-.92.682l-.453-.043-.326-.098c-.025-.073-.04-.38-.05-.57l-.01-.207-.007-.15h-.15c-.397 0-.544.13-.597.527l-.14.915-.017.125.117.045c.532.198.947.278 1.43.278 1.325-.008 2.25-.768 2.25-1.845.01-.582-.245-.936-.938-1.31l-.168-.087-.807-.444a1.526 1.526 0 0 1-.31-.216c-.124-.102-.157-.18-.157-.34 0-.36.337-.595.854-.595.253 0 .51.05.728.137l.02.01c.015.078.04.296.057.78l.006.158.156-.01c.407-.023.544-.147.6-.537l.14-.996-.117-.046zm-6.44-.164l-.593-.013-.04.108c-.057.164-.118.28-.292.573l-.627 1.06-.34.557-.134-.367-.14-.377a20.976 20.976 0 0 1-.422-1.22l-.05-.203-.03-.122-.133-.007-.392.012-.32.008h-.16l-.23.013a.411.411 0 0 0-.278.148c-.087.085-.13.17-.2.34l-.096.222.428-.02.276.028.994 2.484-.074.625a6.486 6.486 0 0 1-.186 1.02l-.122.337-.08.215.23.006.314-.008h.07l.687.008h.055c.23 0 .362-.024.49-.164.08-.07.127-.146.203-.334l.084-.213h-.406l-.328-.016.04-.196.076-.415.05-.282.045-.273.047-.272.994-1.458.233-.325.5-.7c.255-.37.28-.4.4-.52l.274-.276-.392.008-.426.01zM24.82 7.81c-.08.067-.135.17-.216.363l-.122.257-.097.188c-.045.025-.228.038-.547.038l-.605-.017c.07-.33.145-.785.203-1.243l.156-1.328.173-1.213.05-.256.06-.35-.04.07.195-.345-.277.027h-.393l-.55.008h-.243l-.238.013a.48.48 0 0 0-.276.14c-.078.09-.122.166-.198.346l-.095.222.45-.02.34.024c-.04.22-.083.49-.12.82l-.288 2.29c-.05.425-.122.797-.187 1.025l-.134.34-.085.22.24-.003.666-.026.064.01 2.317.018h.133l.327-1.717h-.185c-.25 0-.364.01-.476.1zm-7.877-2.593l.08.59.12.745.006.02.022.1h-.925l.696-1.455zm1.813 3.48l-.918-4.71-.138.005-.39.01-.735.01c-.248 0-.34.008-.443.063-.117.036-.23.146-.35.354l-.037.076-.097.223.652-.02-1.455 2.806-.193.366-.393.73-.23.397-.295.412.3.006.476-.008.51.01.035-.12c.038-.157.085-.275.235-.6l.522-1.125.082-.182h1.402l.09.482c.105.588.153.96.153 1.168l-.016.373.17.002.315-.008h.06l.528.008h.056c.233 0 .37-.024.5-.164.077-.07.125-.146.2-.334l.086-.213h-.35l-.334-.02zm-7.34.003l.044-.196.055-.355.11-.773.168-1.308.164-1.228.07-.456.005-.034.092-.357-.207-.005-.393.01-.44.01h-.204l-.238.013a.472.472 0 0 0-.273.14.899.899 0 0 0-.193.35l-.08.216.435-.014.292.013-.04.21-.068.556-.01.057-.093.715H8.63l.023-.2.08-.608.085-.625.077-.438.04-.202.04-.194-.197-.01-.38.01-.45.01H7.74c-.244 0-.367.015-.503.15-.082.09-.124.17-.2.348l-.094.223.45-.014.302.013a9.225 9.225 0 0 0-.125.823l-.29 2.293a7.145 7.145 0 0 1-.144.876l-.147.406-.033.097-.07.21.538-.015h.07l.672.008h.06c.23 0 .365-.024.493-.164.08-.07.125-.146.2-.334l.088-.213h-.396L8.285 8.7l.045-.195.053-.355.11-.772.046-.34h1.98l-.098.81c-.043.31-.104.647-.155.86a1.985 1.985 0 0 1-.148.42l-.035.098-.067.21.54-.016h.067l.68.008h.053c.234 0 .364-.024.493-.164.08-.07.127-.146.202-.334l.086-.213h-.396l-.325-.017zM4.892 3.99l-.393.012-1.637.008H2.42L.864 4.002l-.328-.01L.4 3.986.122 5.705l.19-.003c.25-.01.352-.02.462-.11.088-.063.147-.173.224-.363l.106-.275.08-.18.013-.005c.124-.022.41-.028.8-.028l-.37 3.038c-.108.804-.18 1.082-.38 1.41l-.15.246.613-.016h.062l.818.008h.05c.25 0 .375-.017.5-.158.088-.083.132-.158.204-.34l.087-.213H3l-.343-.008.05-.22c.052-.22.125-.665.16-.98l.34-2.78c.4.008.768.014.876.036l.046.567.026.37h.146c.398-.012.54-.142.594-.528l.177-1.188-.182.004z" stroke="#000" stroke-width=".197"/></g></svg>