<svg width="68" height="18" viewBox="0 0 68 18" xmlns="http://www.w3.org/2000/svg"><title>carriers/color/web/thello</title><g fill="none" fill-rule="evenodd"><path d="M19 14.058c-1.23 0-2.064-.518-2.064-2.253V8.18h-.846V6.36h.846V4.393h2.01V6.36h1.666v1.82h-1.666v3.275c0 .49.2.728.648.728.37 0 .7-.098.992-.266v1.707c-.423.266-.912.434-1.587.434zm7.473-.168V9.65c0-1.008-.45-1.526-1.217-1.526-.766 0-1.256.518-1.256 1.525v4.24h-2.01V3.488H24v3.908c.463-.63 1.058-1.204 2.076-1.204 1.52 0 2.407 1.064 2.407 2.786v4.912h-2.01zm10.31-3.065h-4.93c.197.966.832 1.525 1.73 1.525.675 0 1.164-.224 1.72-.77l1.15 1.078c-.66.868-1.613 1.4-2.896 1.4-2.13 0-3.702-1.623-3.702-3.918 0-2.14 1.44-3.948 3.504-3.948 2.366 0 3.45 1.96 3.45 4.087 0 .21-.013.35-.026.545zm1.51-7.337h2.01V13.89h-2.01V3.488zm3.7 0h2.01V13.89h-2.01V3.488zM33.36 7.9c-.834 0-1.377.63-1.535 1.595h3.028c-.12-.95-.648-1.595-1.494-1.595z" fill="#394136"/><path d="M49.205 8.19c-1.01 0-1.83.866-1.83 1.935 0 1.07.82 1.935 1.83 1.935 1.01 0 1.828-.866 1.828-1.935 0-1.07-.82-1.935-1.828-1.935zm3.715 1.935c0 2.172-1.663 3.932-3.715 3.932-2.053 0-3.716-1.76-3.716-3.932 0-2.172 1.662-3.933 3.715-3.933 2.052 0 3.715 1.76 3.715 3.933z" fill="#DC3B41"/><path d="M45.648 3.488h7.114v1.924h-7.114V3.488z" fill="#30B3AA"/></g></svg>