<svg xmlns="http://www.w3.org/2000/svg" viewBox="0 0 64.2 73" height="85" width="120" clip-rule="evenodd" fill-rule="evenodd" stroke-linecap="round" stroke-linejoin="round" stroke-miterlimit="10"><g transform="translate(-21.248 -.468)"><clipPath id="a"><path d="M81.834 38.825H6.567c-.91 0-1.606.698-1.606 1.61 0 .913.698 1.61 1.608 1.61h75.267c.91 0 1.606-.697 1.606-1.61-.053-.912-.75-1.61-1.605-1.61z"/></clipPath><g clip-path="url(#a)"><path fill="#4f535c" fill-opacity=".2" fill-rule="nonzero" d="M.817 34.682h86.766V46.19H.817z"/></g><clipPath id="b"><path d="M78.308 7.86H9.198c-1.072 0-1.982.912-1.982 1.985v27.692c0 1.074.91 1.986 1.98 1.986H78.31c.91 0 1.606-.698 1.606-1.61V9.416c0-.752-.696-1.557-1.606-1.557z"/></clipPath><g clip-path="url(#b)"><path fill="#fff" fill-rule="nonzero" d="M3.073 3.716h80.984v39.95H3.073z"/></g><path d="M11.82 33.566h12.26m3.532 0h28.212m-44.004-3.38h12.26m3.532 0h28.212m9.903 3.38h10.01m-10.01-3.38h10.01m-1.07-12.936h-7.87c-.64 0-1.177-.535-1.177-1.18v-.805c0-.644.536-1.18 1.178-1.18h7.87c.642 0 1.177.536 1.177 1.18v.806c0 .646-.535 1.18-1.178 1.18z" fill="none" stroke="#e0e0e3" stroke-width="1.13"/><path d="M61.433 7.537V39.9" fill="none" stroke="#007974" stroke-width="1.5" stroke-linecap="butt" stroke-linejoin="miter"/><path d="M78.63 7.86H9.517c-1.07 0-1.98.912-1.98 1.985v27.692c0 1.074.91 1.986 1.98 1.986h69.11c.91 0 1.607-.698 1.607-1.61V9.416c0-.752-.696-1.557-1.606-1.557z" fill="none" stroke="#4f535c" stroke-width="1.5" stroke-linecap="butt" stroke-linejoin="miter"/><clipPath id="c"><path d="M99.935 64.317H24.668c-.91 0-1.606.698-1.606 1.61 0 .913.696 1.61 1.606 1.61h75.267c.91 0 1.606-.697 1.606-1.61 0-.912-.694-1.61-1.604-1.61z"/></clipPath><g clip-path="url(#c)"><path fill="#4f535c" fill-opacity=".2" fill-rule="nonzero" d="M18.92 60.174h86.765V71.68H18.92z"/></g><clipPath id="d"><path d="M96.776 33.35h-69.11c-1.07 0-1.98.914-1.98 1.987V63.03c0 1.073.91 1.985 1.98 1.985h69.11c.91 0 1.606-.698 1.606-1.61v-28.55c0-.752-.696-1.504-1.606-1.504z"/></clipPath><g clip-path="url(#d)"><path fill="#fff" fill-rule="nonzero" d="M21.542 29.208h80.984v39.95H21.542z"/></g><path d="M30.29 59.058H42.6m3.48 0h28.213m-44.004-3.38H42.6m3.48 0h28.213" fill="none" stroke="#e0e0e3" stroke-width="1.13"/><clipPath id="e"><path d="M14.87 18.432l-2.46 4.776c3.425 0 3.8-1.45 5.834-5.098l-3.373.322zm13.01-4.938h-6.8c-2.783 0-4.014.483-5.406 3.49h3.266c1.124-2.63 3.372-3.007 7.12-3.007h1.606c-.054-.053.214-.483.214-.483zm-.482.86c-3.96-.162-5.246.965-6.05 2.575h4.765l1.285-2.578z"/></clipPath><g clip-path="url(#e)"><path fill="#007974" fill-rule="nonzero" d="M8.266 9.35h23.758v18.002H8.266z"/></g><clipPath id="f"><path d="M18.62 24.12c1.926 0 4.12-1.717 4.174-3.54.054-1.826.375-2.577 2.73-2.577l.214-.43-3.747.215c-1.657.16-2.14 1.18-2.46 2.683-.375 1.56-.964 2.578-2.623 3.008-.375.107-.803.16-1.34.16h-3.37l-.215.484h6.64z"/></clipPath><g clip-path="url(#f)"><path fill="#f2352f" fill-rule="nonzero" d="M7.837 13.43h22.045v14.834H7.837z"/></g><clipPath id="g"><path d="M31.038 24.12l-.32-1.395h-.697l-.694 1.396h-.856l1.605-3.165h1.39c.216 0 .483 0 .644.16.212.162.32.377.266.645-.054.32-.215.75-.803.965l.32 1.45c-.053-.054-.856-.054-.856-.054zm-.428-2.63l-.428.752h.856c.214 0 .428-.16.536-.43.053-.16-.108-.375-.268-.375l-.696.054zm21.84 2.63l2.678-3.166h.856v3.167h-.75v-.75h-1.23l-.643.75h-.91zm2.785-2.253l-.803.912h.803v-.914zM44.42 24.12l2.678-3.166h.857v3.167h-.75v-.75h-1.23l-.644.75h-.91zm2.732-2.253l-.803.912h.8v-.914zm2.89-.913h.857l-1.287 2.63h1.392l-.268.537H48.49l1.552-3.165zm-14.775 1.718h-1.445l-.428.912h2.194l-.267.537h-3.05l1.606-3.165h2.57l-.214.43h-1.766l-.374.75h1.445c.053 0-.268.538-.268.538zm17.56-1.718L51.22 24.12h.857l1.552-3.166h-.805zm-15.365 0h.803l.643 2.093.963-2.093h.698l-1.5 3.167h-.695l-.696-2.252-1.124 2.254h-.642l1.553-3.166zm4.015 0L39.87 24.12h.858l1.552-3.166h-.803zm1.5 0l-.322.537h1.285l-1.285 2.63h.856l1.287-2.63h1.07l.322-.535h-3.213zm-16.757 0l-.32.537h1.284L25.9 24.12h.856l1.284-2.63h1.07l.322-.536H26.22z"/></clipPath><g clip-path="url(#g)"><path fill="#007974" fill-rule="nonzero" d="M21.756 16.81h38.372v11.51H21.756z"/></g><path d="M79.674 32.976v32.36" fill="none" stroke="#de357d" stroke-width="1.5" stroke-linecap="butt" stroke-linejoin="miter"/><path d="M84.196 59.058h10.01m-10.01-3.38h10.01m-1.07-13.418h-7.87c-.642 0-1.177-.537-1.177-1.18v-.752c0-.644.533-1.18 1.176-1.18h7.87c.64 0 1.177.536 1.177 1.18v.805c0 .59-.536 1.127-1.178 1.127z" fill="none" stroke="#e0e0e3" stroke-width="1.13"/><path d="M97.097 33.35h-69.11c-1.07 0-1.98.914-1.98 1.987V63.03c0 1.073.91 1.985 1.98 1.985h69.11c.91 0 1.606-.698 1.606-1.61v-28.55c0-.752-.695-1.504-1.606-1.504z" fill="none" stroke="#4f535c" stroke-width="1.5" stroke-linecap="butt" stroke-linejoin="miter"/><clipPath id="h"><path d="M30.985 37.484c-.322 0-.482.107-.482.43V50.74c0 .214.16.43.375.43h22.858c.214 0 .375 0 .428-.323 0 0 2.302-7.245 2.356-7.406.107-.267.053-.374-.214-.59-7.44-4.775-18.523-5.473-23.608-5.473-.643.108-1.232.108-1.713.108z"/></clipPath><g clip-path="url(#h)"><clipPath id="i"><path d="M30.503 37.484h26.124V51.17H30.503z"/></clipPath><g clip-path="url(#i)" fill-rule="nonzero"><path fill="url(#j)" d="M30.503 37.484h26.124V51.17H30.503z"/><path fill="url(#k)" d="M29.82 37.37h27.347v14.087H29.82z"/></g></g><clipPath id="l"><path d="M38.105 47.305h.107l.856-2.684c.857 1.237 1.713 2.847 2.195 4.564h1.445l.696-2.2.054-.054.053.053c.216 1.395 1.555 2.254 3.48 2.254 1.233 0 2.357-.322 2.625-.483l.696-2.308h2.785l.267-.912H50.58l.48-1.503h3.32l.322-.91h-4.658l-1.606 4.99c-.374.108-.75.108-1.177.108-.91 0-1.66-.214-2.142-.697-.32-.375-.428-.86-.374-1.395.16-1.288 1.445-2.093 3.104-2.093.375 0 .696 0 1.018.055l.32-.966c-.374-.054-.91-.11-1.39-.11-1.446 0-2.73.485-3.588 1.45l-.107.055-.052-.054.374-1.287h-1.176l-1.34 4.187c-.427-1.236-1.283-2.846-2.354-4.188h-1.178l-.963 3.06c.428.375.588.644.696 1.073z"/></clipPath><g clip-path="url(#l)"><path fill="#fff" fill-rule="nonzero" d="M33.265 38.868h25.578V53.38H33.265z"/></g><clipPath id="m"><path d="M35.696 45.695c-.857-.376-1.446-.644-1.285-1.02.16-.483 1.02-.644 1.768-.644.375 0 .643.056.964.11l.27-.913c-.376-.107-.644-.107-1.18-.107-1.498-.055-2.943.374-3.265 1.287-.374 1.073.75 1.663 1.82 2.147.857.375 1.446.75 1.232 1.234-.16.376-.75.59-1.607.537-.75 0-1.66-.215-2.355-.59l-.428.912c.535.268 1.66.59 2.57.644 1.713.055 2.89-.374 3.32-1.394.64-1.073-.697-1.717-1.82-2.2z"/></clipPath><g clip-path="url(#m)"><path fill="#fff" fill-rule="nonzero" d="M27.484 38.97h14.342v14.47H27.484z"/></g></g><defs><linearGradient gradientTransform="translate(31.13 461.37) scale(846.36)" gradientUnits="userSpaceOnUse" x2="1" id="j"><stop offset="0%" stop-color="#974184" stop-opacity="0"/><stop offset="100%" stop-color="#eb3731" stop-opacity="0"/></linearGradient><linearGradient gradientTransform="translate(30.52 44.32) scale(26.06)" gradientUnits="userSpaceOnUse" x2="1" id="k"><stop offset="0%" stop-color="#974184"/><stop offset="100%" stop-color="#eb3731"/></linearGradient></defs></svg>
