<svg width="68" height="18" viewBox="0 0 68 18" xmlns="http://www.w3.org/2000/svg"><title>carriers/color/web/train</title><path d="M48.513 16.147H19.346c-.19 0-.346.19-.346.426 0 .237.155.427.346.427h29.167c.192 0 .347-.19.347-.427 0-.236-.155-.426-.347-.426zM43.06 8.934l4.353 1.436c-1.152-1.434-2.94-3.137-5.147-4.222a1.775 1.775 0 0 0-.21 1.88c.205.427.56.75 1.003.906zm4.894 2.38l-5.31-1.752a2.414 2.414 0 0 1-1.385-1.25 2.473 2.473 0 0 1-.107-1.875c.07-.21.177-.4.297-.576-1.217-.52-2.538-.86-3.942-.86H19.214c-.217 0-.204.234-.204.35v9.572c0 .233.115.35.344.35h27.452c.69 0 1.505-.507 1.85-1.09.228-.35.217-.76.1-1.245-.06-.257-.285-.867-.802-1.624zm-10.587-.275c0 .11-.094.22-.188.22h-3.214c-.095 0-.19-.11-.19-.22V8.056c0-.11.095-.22.19-.22h3.213c.093 0 .187.11.187.22v2.982zm-4.703 0c0 .11-.095.22-.19.22H27.5c-.094 0-.19-.11-.19-.22V8.056c0-.11.096-.22.19-.22h4.975c.094 0 .19.11.19.22v2.982zm-6.48 0c0 .11-.096.22-.19.22H22.78c-.093 0-.188-.11-.188-.22V8.056c0-.11.095-.22.19-.22h3.212c.094 0 .19.11.19.22v2.982z" fill="#4A4A4A" fill-rule="evenodd"/></svg>