<svg xmlns="http://www.w3.org/2000/svg" width="85" height="30" viewBox="0 0 85 30"><path fill="#B2B2B2" fill-rule="evenodd" d="M81.098 16.478c-.048-1.184-.811-2.344-2.625-2.344-1.647 0-2.554 1.256-2.625 2.344h5.25zm3 3.844c-.58 2.053-2.449 3.75-5.344 3.75-3.242 0-6.094-2.318-6.094-6.282 0-3.751 2.78-6.188 5.813-6.188 3.631 0 5.813 2.318 5.813 6.094 0 .452-.049.93-.094.938h-8.438c.118 1.592 1.436 2.715 3 2.719 1.504-.004 2.32-.745 2.719-1.781l2.625.75zm-20.626-3.376c.006-1.392.823-2.47 2.25-2.437 1.502-.033 2.15.997 2.157 2.344v6.844h3.187V16.29c0-2.604-1.345-4.688-4.313-4.688-1.234 0-2.651.551-3.375 1.782v-1.5h-3.094v11.813h3.188v-6.75zm-8.438-5.062h3.188v11.813h-3.188V11.884zm1.594-5.813c1.105 0 1.969.888 1.969 1.969 0 1.08-.864 1.969-1.97 1.969a1.978 1.978 0 0 1-1.968-1.97c0-1.08.889-1.968 1.969-1.968zM38.72 16.946c.006-1.392.822-2.47 2.25-2.437 1.501-.033 2.15.997 2.156 2.344v6.844h3.188V16.29c0-2.604-1.345-4.688-4.313-4.688-1.234 0-2.651.551-3.375 1.782v-1.5h-3.094v11.813h3.188v-6.75zm-8.626-5.062h3.188v11.813h-3.188V11.884zM31.69 6.07c1.105 0 1.969.888 1.969 1.969 0 1.08-.864 1.969-1.969 1.969a1.978 1.978 0 0 1-1.969-1.97c0-1.08.889-1.968 1.97-1.968zm-9.375 15.657c-.997 0-1.5-.676-1.5-1.406 0-.886.647-1.345 1.5-1.5l2.625-.375v.562c0 2.067-1.247 2.719-2.625 2.719zm-4.688-1.219c0 1.863 1.537 3.563 4.031 3.563 1.782 0 2.912-.814 3.47-1.782.043.49.09 1.135.187 1.407h2.906c-.072-.367-.144-1.205-.187-1.782v-5.812c.043-2.395-1.35-4.5-5.063-4.5-3.206 0-4.912 2.034-5.063 3.843l2.813.657c.077-1.054.846-1.94 2.25-1.97 1.334.03 1.983.724 1.969 1.595.014.374-.202.709-.844.843l-2.906.375c-2.002.305-3.563 1.478-3.563 3.563zm-.938-5.438a3.028 3.028 0 0 0-.937-.093c-1.662-.02-3.082.773-3.094 3.281v5.438H9.469V11.884h3.094v1.781c.732-1.587 2.369-1.875 3.375-1.875.269 0 .51.024.75.094v3.187zm-9.094-3v2.813H3.938c.33-.2.626-.432.843-.656a4.628 4.628 0 0 0 1.22-2.157h1.593zM.938 14.884H0V12.07h5.157a4.066 4.066 0 0 1-1.594 2.063c-.697.45-1.597.71-2.625.75zm5.812 6.188c.34.01.77-.038.938-.094v2.625c-.287.115-.862.281-1.781.281-2.314 0-3.75-1.354-3.75-3.656V15.54h3.187v4.22c-.027.989.452 1.321 1.406 1.312zm-1.5-9.657V8.602H2.344v1.688c.036.407-.068.809-.281 1.125H5.25zm48.003 9.657c-.17.001-.36.012-.563 0-.883.012-1.359-.32-1.312-1.313V6.54H48.19v13.783c0 2.21 1.428 3.562 3.75 3.562.55 0 .993-.067 1.313-.187v-2.625z"/></svg>