<svg xmlns="http://www.w3.org/2000/svg" width="81.903" height="26.114" viewBox="0 0 81.903 26.114"><g fill-rule="evenodd" clip-rule="evenodd"><path fill="#006A65" d="M26.256 14.176h5.992l-.57 1.171c-.064-.136-.184-.228-.323-.228h-1.584l-2.438 4.98h-1.55l2.438-4.981h-1.97c-.184 0-.405.104-.568.229l.573-1.171zm17.799 4.79L43.5 20.1h-5.791l2.697-5.52a.542.542 0 0 0 .006-.418h5.164l-.571 1.167c-.063-.136-.185-.228-.324-.228h-2.976l-.691 1.417h3.009l-.57 1.167c-.063-.136-.185-.227-.324-.227h-2.574l-.833 1.704 3.742.001c.148-.001.472-.082.591-.197zm28.596 0l-.554 1.134H67.7l2.697-5.52a.525.525 0 0 0 .006-.418h1.742l-2.434 5 2.349.001c.15-.001.473-.082.591-.197zM30.491 20.1l2.685-5.504a.514.514 0 0 0 .046-.217.515.515 0 0 0-.037-.204h3.097c.599 0 1.733-.016 1.733 1.39 0 1.259-1.221 1.995-1.737 2.068l.451 2.038a.69.69 0 0 0 .281.43h-1.665l-.492-2.452h-1.619L32.04 20.1h-1.55.001zm6.038-4.536c0-.184-.147-.448-.51-.448h-1.544l-.783 1.595h1.449c.827 0 1.388-.529 1.388-1.147zm18.06-1.4a.538.538 0 0 1-.006.422L51.89 20.1h1.554l2.902-5.936h-1.757zm20.937 0a.519.519 0 0 1-.005.422L72.828 20.1h1.553l2.902-5.936h-1.757zm-18.083.012h5.993l-.57 1.171c-.064-.136-.185-.228-.323-.228l-1.584-.001-2.438 4.982h-1.548l2.438-4.981h-1.97c-.184 0-.405.104-.569.229l.571-1.172zm7.694.007c0 .144-.052.31-.196.479l-4.714 5.448h1.357l1.117-1.349h2.89l.029 1.349h1.423l-.306-5.928-1.6.001zm-1.638 3.613l2.023-2.432.048 2.432h-2.071zm16.495-3.612a.734.734 0 0 1-.197.48l-4.729 5.465h1.36l1.122-1.354h2.898l.029 1.354h1.426l-.306-5.946-1.603.001zm-1.643 3.624l2.028-2.439.049 2.439h-2.077zm-31.415-2.816l.191-.392a.504.504 0 0 0 .007-.416h1.543l1.447 4.12 1.808-3.704a.495.495 0 0 0 .007-.417h1.273l-2.895 5.93h-1.11l-1.542-4.412-2.151 4.412h-1.078l2.5-5.121zM3.035 24.412v-.03H1.536v.554h.783a.612.612 0 0 1-.114.284c-.131.183-.389.296-.656.296-.529 0-.91-.406-.91-.973 0-.576.376-.978.915-.978.165 0 .317.038.461.119a.831.831 0 0 1 .304.271l.529-.309a1.399 1.399 0 0 0-.317-.355c-.254-.208-.614-.326-.995-.326C.627 22.964 0 23.607 0 24.535c0 .922.623 1.562 1.515 1.562.593 0 1.101-.293 1.342-.776.127-.249.178-.52.178-.909zm78.868-.788v-.58h-1.697v2.988h1.693v-.597h-1.045v-.639h1.024v-.58h-1.024v-.593h1.049v.001zm-11.292 2.409l-1.228-2.988h-.69l-1.173 2.988h.695l.22-.605h1.24l.233.605h.703zm-1.151-1.169h-.821l.402-1.181.419 1.181zm3.077 1.169v-.588h-1.02v-2.4h-.652v2.988h1.672zm.999 0v-2.988h-.651v2.988h.651zm3.335 0l-1.227-2.988h-.69l-1.173 2.988h.695l.22-.605h1.24l.233.605h.702zm-1.151-1.169h-.821l.402-1.181.419 1.181zm3.988 1.169v-2.988h-.61l.012 1.968-1.392-1.968h-.589v2.988h.614l-.017-2.006 1.401 2.006h.581zM67.666 23.62v-.576H65.74v.584h.639v2.404h.648V23.62h.639zm-4.444.923c0-.902-.686-1.575-1.604-1.575-.915 0-1.58.673-1.58 1.6 0 .906.661 1.542 1.609 1.542.927-.001 1.575-.645 1.575-1.567zm-.669.008c0 .538-.39.948-.897.948a.93.93 0 0 1-.957-.948c0-.538.411-.961.939-.961.526 0 .915.411.915.961zm2.887 1.482v-2.988h-.652v2.988h.652zm-5.482-2.413v-.576h-1.925v.584h.639v2.404h.647V23.62h.639zm-1.76 2.413l-1.227-2.988h-.689l-1.173 2.988h.695l.22-.605h1.24l.233.605h.701zm-1.152-1.169h-.82l.402-1.181.418 1.181zm-1.794-1.244v-.576h-1.926v.584h.639v2.404h.648V23.62h.639zm-5.502.923c0-.902-.686-1.575-1.604-1.575-.915 0-1.579.673-1.579 1.6 0 .906.661 1.542 1.609 1.542.926-.001 1.574-.645 1.574-1.567zm-.669.008c0 .538-.389.948-.897.948a.93.93 0 0 1-.957-.948c0-.538.41-.961.939-.961.526 0 .915.411.915.961zm4.068.568c0-.932-1.202-.843-1.202-1.308 0-.157.131-.263.284-.263.203 0 .33.132.444.284l.415-.466c-.254-.263-.478-.402-.859-.402-.508 0-.961.331-.961.868 0 .508.402.753.808.948.093.042.195.089.271.156a.324.324 0 0 1 .118.254c0 .212-.173.355-.376.355-.246 0-.411-.165-.563-.339l-.423.466c.271.262.571.429.957.429.591.001 1.087-.356 1.087-.982zm-6.739.914v-.588h-1.02v-2.4h-.651v2.988h1.671zm-6.234-1.529c0-.296-.072-.555-.22-.808-.352-.601-.944-.652-1.575-.652h-.605v2.988h.699c.423 0 .812-.018 1.164-.284.367-.278.537-.795.537-1.244zm-.635.018c0 .601-.313.986-.936.986h-.178v-1.943h.089c.241 0 .508.021.703.178.233.186.322.491.322.779zm2.747-.898v-.58H40.59v2.988h1.693v-.597h-1.046v-.639h1.025v-.58h-1.025v-.593h1.051v.001zm2.095 2.409v-.588h-1.02v-2.4h-.651v2.988h1.671zm-8.304-2.409v-.58h-1.697v2.988h1.693v-.597H35.03v-.639h1.024v-.58H35.03v-.593h1.049v.001zm-2.307 2.409v-2.988h-.652v2.988h.652zm-.889-2.989h-.703l-.75 2.133-.749-2.133h-.711l1.117 2.988h.626l1.17-2.988zm-2.971 1.499c0-.902-.686-1.575-1.604-1.575-.914 0-1.579.673-1.579 1.6 0 .906.66 1.542 1.608 1.542.927-.001 1.575-.645 1.575-1.567zm-.669.008c0 .538-.39.948-.897.948a.93.93 0 0 1-.957-.948c0-.538.41-.961.939-.961.526 0 .915.411.915.961zm-16.185-.575a.95.95 0 0 0-.165-.559c-.199-.271-.479-.351-.8-.369-.059-.004-.123-.004-.182-.004h-.872v2.988h.648v-1.134h.309c.284 0 .58-.034.787-.237a.946.946 0 0 0 .275-.685zm-.636-.005c0 .275-.199.376-.448.376h-.284v-.762h.271c.068 0 .136 0 .203.017.174.044.258.2.258.369zm3.916.572c0-.902-.686-1.575-1.604-1.575-.914 0-1.579.673-1.579 1.6 0 .906.66 1.542 1.608 1.542.927-.001 1.575-.645 1.575-1.567zm-.669.008c0 .538-.389.948-.897.948a.93.93 0 0 1-.957-.948.94.94 0 0 1 .94-.961c.525 0 .914.411.914.961zm3.978.229v-.584h-1.083v-.584h1.083v-.567h-1.735v2.988h.652V24.78h1.083zm1.986-1.156v-.58h-1.698v2.988h1.693v-.597h-1.045v-.639h1.024v-.58h-1.024v-.593h1.05v.001zm2.611 2.409l-.863-1.27a.994.994 0 0 0 .33-.118c.237-.153.343-.44.343-.715a.954.954 0 0 0-.14-.5c-.229-.355-.639-.385-1.024-.385h-.838v2.988h.63v-1.261l.792 1.261h.77zm-.825-2.078a.413.413 0 0 1-.055.211c-.102.169-.267.186-.444.186h-.233v-.787h.22c.262 0 .512.085.512.39zm3.204 2.078l-.864-1.27a.994.994 0 0 0 .33-.118c.237-.153.343-.44.343-.715a.954.954 0 0 0-.14-.5c-.229-.355-.64-.385-1.024-.385h-.838v2.988h.631v-1.261l.792 1.261h.77zm-.826-2.078a.413.413 0 0 1-.055.211c-.102.169-.267.186-.444.186h-.232v-.787h.22c.262 0 .511.085.511.39zm-15.046.021a.95.95 0 0 0-.165-.559c-.199-.271-.479-.351-.8-.369-.06-.004-.123-.004-.182-.004h-.872v2.988h.647v-1.134h.309c.284 0 .58-.034.787-.237a.939.939 0 0 0 .276-.685zm-.635-.005c0 .275-.199.376-.449.376h-.283v-.762h.271a.82.82 0 0 1 .203.017c.173.044.258.2.258.369zm-4.491 2.062l-.863-1.27c.114-.025.232-.055.33-.118.237-.153.343-.44.343-.715a.945.945 0 0 0-.14-.5c-.228-.355-.639-.385-1.024-.385h-.838v2.988h.631v-1.261l.791 1.261h.77zM4.8 23.955a.413.413 0 0 1-.055.211c-.102.169-.267.186-.444.186h-.234v-.787h.22c.263 0 .513.085.513.39zm3.424.753v-1.663h-.635v1.867c0 .368-.153.618-.551.618-.178 0-.373-.059-.482-.208-.102-.135-.105-.271-.105-.432v-1.845h-.636v1.867c0 .186.013.373.081.546.174.453.656.657 1.118.657.389 0 .77-.132.999-.462.194-.281.211-.619.211-.945z"/><path fill="#006C67" d="M11.71 8.951l-6.462.654-4.355 8.633c3.445 0 5.213-.335 7.228-3.206.849-1.228 2.357-3.673 3.589-6.081zM29.176.962L29.671 0H16.087c-4.605 0-6.956 1.558-8.385 4.443C6.583 6.7 6.587 6.702 6.587 6.702h6.17c2.194-4.202 4.868-5.65 11.404-5.74h5.015z"/><path fill="#006C67" d="M28.757 1.888c-8.284.072-9.662 1.421-11.538 4.813l9.165.004 2.373-4.817z"/><path fill="#E31937" d="M19.973 13.768a7.46 7.46 0 0 1-6.005 6.01s-1.828.32-3.028.321H0l.422-.86s3.705-.028 4.201-.028c1.278.028 3.592-.251 3.592-.251 2.613-.276 4.668-1.978 5.321-4.453l.736-2.496a4.497 4.497 0 0 1 4.414-3.636l7.087-.447-.339.678-2.183.135a3.406 3.406 0 0 0-3.109 3.003l-.169 2.024z"/></g></svg>