<svg width="25" height="281" viewBox="0 0 25 281" xmlns="http://www.w3.org/2000/svg"><g fill="none" fill-rule="evenodd"><g transform="matrix(.5 0 0 .5 0 137.918)"><ellipse fill-opacity=".05" fill="#000" cx="23" cy="44.579" rx="23" ry="6.263"/><path d="M26.285 45.453C37.432 43.87 46 34.35 46 22.843 46 10.226 35.703 0 23 0S0 10.227 0 22.842C0 34.35 8.568 43.87 19.715 45.452L23 49.37l3.285-3.915z" fill="#733F8A"/><ellipse fill="#733F8A" cx="23" cy="53.789" rx="2.226" ry="2.211"/></g><path fill="#FFF" d="M11.5 152.794l-3.527 1.478.317-3.81-2.496-2.898 3.722-.877 1.984-3.27 1.984 3.27 3.722.877-2.496 2.897.317 3.812"/><path d="M11.817 87.918a.534.534 0 0 1-.36-.14C11.236 87.57 6 82.655 6 77.837 6 74.617 8.61 72 11.817 72c3.208 0 5.818 2.62 5.818 5.837 0 4.82-5.235 9.734-5.46 9.94-.1.094-.23.14-.358.14zm.05-7.795a2.256 2.256 0 1 1 0-4.513 2.256 2.256 0 0 1-.001 4.513z" fill="#00CCBC"/><g stroke-width="3" transform="translate(5 2)" stroke="#FFF"><path d="M14.06 15l4.197 4.248" stroke-linecap="round" stroke-linejoin="round"/><ellipse cx="8.36" cy="8.462" rx="8.36" ry="8.462"/></g><path stroke="#00CCBC" stroke-width="2" d="M5 216.918l5 5 5-5M7.5 277.418l5-5-5-5"/></g></svg>